<?xml version="1.0" encoding="utf-8" standalone="no"?>
<!DOCTYPE svg PUBLIC "-//W3C//DTD SVG 1.1//EN"
  "http://www.w3.org/Graphics/SVG/1.1/DTD/svg11.dtd">
<!-- Created with matplotlib (https://matplotlib.org/) -->
<svg height="576pt" version="1.1" viewBox="0 0 1152 576" width="1152pt" xmlns="http://www.w3.org/2000/svg" xmlns:xlink="http://www.w3.org/1999/xlink">
 <defs>
  <style type="text/css">
*{stroke-linecap:butt;stroke-linejoin:round;}
  </style>
 </defs>
 <g id="figure_1">
  <g id="patch_1">
   <path d="M 0 576 
L 1152 576 
L 1152 0 
L 0 0 
z
" style="fill:#ffffff;"/>
  </g>
  <g id="axes_1">
   <g id="patch_2">
    <path d="M 144 504 
L 1036.8 504 
L 1036.8 69.12 
L 144 69.12 
z
" style="fill:#ffffff;"/>
   </g>
   <g id="patch_3">
    <path clip-path="url(#p6ca7e2635e)" d="M 175.885714 504 
L 197.142857 504 
L 197.142857 473.320635 
L 175.885714 473.320635 
z
" style="fill:#1f77b4;"/>
   </g>
   <g id="patch_4">
    <path clip-path="url(#p6ca7e2635e)" d="M 303.428571 504 
L 324.685714 504 
L 324.685714 473.320635 
L 303.428571 473.320635 
z
" style="fill:#1f77b4;"/>
   </g>
   <g id="patch_5">
    <path clip-path="url(#p6ca7e2635e)" d="M 430.971429 504 
L 452.228571 504 
L 452.228571 396.622222 
L 430.971429 396.622222 
z
" style="fill:#1f77b4;"/>
   </g>
   <g id="patch_6">
    <path clip-path="url(#p6ca7e2635e)" d="M 558.514286 504 
L 579.771429 504 
L 579.771429 365.942857 
L 558.514286 365.942857 
z
" style="fill:#1f77b4;"/>
   </g>
   <g id="patch_7">
    <path clip-path="url(#p6ca7e2635e)" d="M 686.057143 504 
L 707.314286 504 
L 707.314286 89.828571 
L 686.057143 89.828571 
z
" style="fill:#1f77b4;"/>
   </g>
   <g id="patch_8">
    <path clip-path="url(#p6ca7e2635e)" d="M 813.6 504 
L 834.857143 504 
L 834.857143 273.904762 
L 813.6 273.904762 
z
" style="fill:#1f77b4;"/>
   </g>
   <g id="patch_9">
    <path clip-path="url(#p6ca7e2635e)" d="M 941.142857 504 
L 962.4 504 
L 962.4 504 
L 941.142857 504 
z
" style="fill:#1f77b4;"/>
   </g>
   <g id="patch_10">
    <path clip-path="url(#p6ca7e2635e)" d="M 197.142857 504 
L 218.4 504 
L 218.4 427.301587 
L 197.142857 427.301587 
z
" style="fill:#ff7f0e;"/>
   </g>
   <g id="patch_11">
    <path clip-path="url(#p6ca7e2635e)" d="M 324.685714 504 
L 345.942857 504 
L 345.942857 457.980952 
L 324.685714 457.980952 
z
" style="fill:#ff7f0e;"/>
   </g>
   <g id="patch_12">
    <path clip-path="url(#p6ca7e2635e)" d="M 452.228571 504 
L 473.485714 504 
L 473.485714 350.603175 
L 452.228571 350.603175 
z
" style="fill:#ff7f0e;"/>
   </g>
   <g id="patch_13">
    <path clip-path="url(#p6ca7e2635e)" d="M 579.771429 504 
L 601.028571 504 
L 601.028571 289.244444 
L 579.771429 289.244444 
z
" style="fill:#ff7f0e;"/>
   </g>
   <g id="patch_14">
    <path clip-path="url(#p6ca7e2635e)" d="M 707.314286 504 
L 728.571429 504 
L 728.571429 181.866667 
L 707.314286 181.866667 
z
" style="fill:#ff7f0e;"/>
   </g>
   <g id="patch_15">
    <path clip-path="url(#p6ca7e2635e)" d="M 834.857143 504 
L 856.114286 504 
L 856.114286 365.942857 
L 834.857143 365.942857 
z
" style="fill:#ff7f0e;"/>
   </g>
   <g id="patch_16">
    <path clip-path="url(#p6ca7e2635e)" d="M 962.4 504 
L 983.657143 504 
L 983.657143 504 
L 962.4 504 
z
" style="fill:#ff7f0e;"/>
   </g>
   <g id="patch_17">
    <path clip-path="url(#p6ca7e2635e)" d="M 218.4 504 
L 239.657143 504 
L 239.657143 473.320635 
L 218.4 473.320635 
z
" style="fill:#2ca02c;"/>
   </g>
   <g id="patch_18">
    <path clip-path="url(#p6ca7e2635e)" d="M 345.942857 504 
L 367.2 504 
L 367.2 427.301587 
L 345.942857 427.301587 
z
" style="fill:#2ca02c;"/>
   </g>
   <g id="patch_19">
    <path clip-path="url(#p6ca7e2635e)" d="M 473.485714 504 
L 494.742857 504 
L 494.742857 381.28254 
L 473.485714 381.28254 
z
" style="fill:#2ca02c;"/>
   </g>
   <g id="patch_20">
    <path clip-path="url(#p6ca7e2635e)" d="M 601.028571 504 
L 622.285714 504 
L 622.285714 411.961905 
L 601.028571 411.961905 
z
" style="fill:#2ca02c;"/>
   </g>
   <g id="patch_21">
    <path clip-path="url(#p6ca7e2635e)" d="M 728.571429 504 
L 749.828571 504 
L 749.828571 135.847619 
L 728.571429 135.847619 
z
" style="fill:#2ca02c;"/>
   </g>
   <g id="patch_22">
    <path clip-path="url(#p6ca7e2635e)" d="M 856.114286 504 
L 877.371429 504 
L 877.371429 258.565079 
L 856.114286 258.565079 
z
" style="fill:#2ca02c;"/>
   </g>
   <g id="patch_23">
    <path clip-path="url(#p6ca7e2635e)" d="M 983.657143 504 
L 1004.914286 504 
L 1004.914286 488.660317 
L 983.657143 488.660317 
z
" style="fill:#2ca02c;"/>
   </g>
   <g id="matplotlib.axis_1">
    <g id="xtick_1">
     <g id="line2d_1">
      <defs>
       <path d="M 0 0 
L 0 3.5 
" id="m7841e64295" style="stroke:#000000;stroke-width:0.8;"/>
      </defs>
      <g>
       <use style="stroke:#000000;stroke-width:0.8;" x="207.771429" xlink:href="#m7841e64295" y="504"/>
      </g>
     </g>
     <g id="text_1">
      <!-- [0.0, 0.125) -->
      <defs>
       <path d="M 30.609375 -17.1875 
L 10.640625 -17.1875 
L 10.640625 75.640625 
L 30.609375 75.640625 
L 30.609375 68.84375 
L 19.046875 68.84375 
L 19.046875 -10.453125 
L 30.609375 -10.453125 
z
" id="MicrosoftYaHei-91"/>
       <path d="M 4.4375 36.328125 
Q 4.4375 56.34375 11.078125 66.625 
Q 17.71875 76.90625 30.328125 76.90625 
Q 54.34375 76.90625 54.34375 38.140625 
Q 54.34375 19 47.578125 8.859375 
Q 40.828125 -1.265625 28.609375 -1.265625 
Q 17.09375 -1.265625 10.765625 8.34375 
Q 4.4375 17.96875 4.4375 36.328125 
z
M 14.203125 36.765625 
Q 14.203125 6.640625 29.5 6.640625 
Q 44.53125 6.640625 44.53125 37.25 
Q 44.53125 68.953125 29.78125 68.953125 
Q 14.203125 68.953125 14.203125 36.765625 
z
" id="MicrosoftYaHei-48"/>
       <path d="M 5.8125 5.03125 
Q 5.8125 7.671875 7.609375 9.46875 
Q 9.421875 11.28125 12.109375 11.28125 
Q 14.84375 11.28125 16.640625 9.453125 
Q 18.453125 7.625 18.453125 5.03125 
Q 18.453125 2.484375 16.640625 0.65625 
Q 14.84375 -1.171875 12.0625 -1.171875 
Q 9.375 -1.171875 7.59375 0.65625 
Q 5.8125 2.484375 5.8125 5.03125 
z
" id="MicrosoftYaHei-46"/>
       <path d="M 17.328125 12.15625 
L 8.984375 -13.875 
L 2.046875 -13.875 
L 8.109375 12.15625 
z
" id="MicrosoftYaHei-44"/>
       <path id="MicrosoftYaHei-32"/>
       <path d="M 27.828125 0 
L 27.828125 64.703125 
Q 25.59375 62.453125 20.234375 59.671875 
Q 14.890625 56.890625 10.359375 55.765625 
L 10.359375 65.140625 
Q 16.359375 66.796875 23.1875 70.4375 
Q 30.03125 74.078125 33.6875 77.296875 
L 37.3125 77.296875 
L 37.3125 0 
z
" id="MicrosoftYaHei-49"/>
       <path d="M 41.65625 55.8125 
Q 41.65625 61.921875 37.796875 65.40625 
Q 33.9375 68.890625 27.296875 68.890625 
Q 22.609375 68.890625 17.8125 66.5 
Q 13.03125 64.109375 8.890625 59.671875 
L 8.890625 68.953125 
Q 12.59375 72.796875 17.296875 74.84375 
Q 22.015625 76.90625 28.375 76.90625 
Q 38.625 76.90625 44.875 71.40625 
Q 51.125 65.921875 51.125 56.546875 
Q 51.125 48.1875 47.28125 42.078125 
Q 43.453125 35.984375 34.1875 29.59375 
Q 24.703125 23.046875 21.5 20.21875 
Q 18.3125 17.390625 17.03125 14.796875 
Q 15.765625 12.203125 15.765625 8.5 
L 53.375 8.5 
L 53.375 0 
L 5.8125 0 
L 5.8125 3.765625 
Q 5.8125 10.296875 7.59375 14.859375 
Q 9.375 19.4375 13.46875 23.75 
Q 17.578125 28.078125 26.265625 34.125 
Q 35.15625 40.375 38.40625 45.09375 
Q 41.65625 49.8125 41.65625 55.8125 
z
" id="MicrosoftYaHei-50"/>
       <path d="M 51.46875 23.34375 
Q 51.46875 12.25 44.109375 5.46875 
Q 36.765625 -1.3125 24.359375 -1.3125 
Q 13.71875 -1.3125 8.5 1.859375 
L 8.5 11.625 
Q 16.15625 6.640625 24.125 6.640625 
Q 32.03125 6.640625 36.890625 11 
Q 41.75 15.375 41.75 22.609375 
Q 41.75 29.828125 36.6875 33.859375 
Q 31.640625 37.890625 22.40625 37.890625 
Q 15.28125 37.890625 9.578125 37.25 
L 12.359375 75.640625 
L 47.703125 75.640625 
L 47.703125 67.234375 
L 20.40625 67.234375 
L 18.84375 45.796875 
L 25.734375 46.09375 
Q 37.75 46.09375 44.609375 40.109375 
Q 51.46875 34.125 51.46875 23.34375 
z
" id="MicrosoftYaHei-53"/>
       <path d="M 1.21875 -17.1875 
Q 17.671875 2.546875 17.671875 28.953125 
Q 17.671875 55.421875 1.125 75.640625 
L 9.625 75.640625 
Q 26.125 56.296875 26.125 28.859375 
Q 26.125 1.421875 9.625 -17.1875 
z
" id="MicrosoftYaHei-41"/>
      </defs>
      <g transform="translate(181.74721 518.99375)scale(0.1 -0.1)">
       <use xlink:href="#MicrosoftYaHei-91"/>
       <use x="33.398438" xlink:href="#MicrosoftYaHei-48"/>
       <use x="92.041016" xlink:href="#MicrosoftYaHei-46"/>
       <use x="116.113281" xlink:href="#MicrosoftYaHei-48"/>
       <use x="174.755859" xlink:href="#MicrosoftYaHei-44"/>
       <use x="198.828125" xlink:href="#MicrosoftYaHei-32"/>
       <use x="228.417969" xlink:href="#MicrosoftYaHei-48"/>
       <use x="287.060547" xlink:href="#MicrosoftYaHei-46"/>
       <use x="311.132812" xlink:href="#MicrosoftYaHei-49"/>
       <use x="369.775391" xlink:href="#MicrosoftYaHei-50"/>
       <use x="428.417969" xlink:href="#MicrosoftYaHei-53"/>
       <use x="487.060547" xlink:href="#MicrosoftYaHei-41"/>
      </g>
     </g>
    </g>
    <g id="xtick_2">
     <g id="line2d_2">
      <g>
       <use style="stroke:#000000;stroke-width:0.8;" x="335.314286" xlink:href="#m7841e64295" y="504"/>
      </g>
     </g>
     <g id="text_2">
      <!-- [0.125, 0.25) -->
      <g transform="translate(306.358036 518.99375)scale(0.1 -0.1)">
       <use xlink:href="#MicrosoftYaHei-91"/>
       <use x="33.398438" xlink:href="#MicrosoftYaHei-48"/>
       <use x="92.041016" xlink:href="#MicrosoftYaHei-46"/>
       <use x="116.113281" xlink:href="#MicrosoftYaHei-49"/>
       <use x="174.755859" xlink:href="#MicrosoftYaHei-50"/>
       <use x="233.398438" xlink:href="#MicrosoftYaHei-53"/>
       <use x="292.041016" xlink:href="#MicrosoftYaHei-44"/>
       <use x="316.113281" xlink:href="#MicrosoftYaHei-32"/>
       <use x="345.703125" xlink:href="#MicrosoftYaHei-48"/>
       <use x="404.345703" xlink:href="#MicrosoftYaHei-46"/>
       <use x="428.417969" xlink:href="#MicrosoftYaHei-50"/>
       <use x="487.060547" xlink:href="#MicrosoftYaHei-53"/>
       <use x="545.703125" xlink:href="#MicrosoftYaHei-41"/>
      </g>
     </g>
    </g>
    <g id="xtick_3">
     <g id="line2d_3">
      <g>
       <use style="stroke:#000000;stroke-width:0.8;" x="462.857143" xlink:href="#m7841e64295" y="504"/>
      </g>
     </g>
     <g id="text_3">
      <!-- [0.25, 0.3) -->
      <defs>
       <path d="M 6.984375 12.640625 
Q 14.75 6.640625 24.515625 6.640625 
Q 32.328125 6.640625 36.890625 10.46875 
Q 41.453125 14.3125 41.453125 20.75 
Q 41.453125 35.109375 20.90625 35.109375 
L 14.59375 35.109375 
L 14.59375 43.015625 
L 20.609375 43.015625 
Q 38.8125 43.015625 38.8125 56.5 
Q 38.8125 68.953125 24.90625 68.953125 
Q 16.9375 68.953125 9.90625 63.578125 
L 9.90625 72.609375 
Q 17.328125 76.90625 27.25 76.90625 
Q 36.921875 76.90625 42.78125 71.84375 
Q 48.640625 66.796875 48.640625 58.734375 
Q 48.640625 43.890625 33.5 39.65625 
L 33.5 39.453125 
Q 41.703125 38.578125 46.453125 33.671875 
Q 51.21875 28.765625 51.21875 21.4375 
Q 51.21875 11.234375 43.875 4.984375 
Q 36.53125 -1.265625 24.3125 -1.265625 
Q 13.578125 -1.265625 6.984375 2.734375 
z
" id="MicrosoftYaHei-51"/>
      </defs>
      <g transform="translate(439.764955 518.99375)scale(0.1 -0.1)">
       <use xlink:href="#MicrosoftYaHei-91"/>
       <use x="33.398438" xlink:href="#MicrosoftYaHei-48"/>
       <use x="92.041016" xlink:href="#MicrosoftYaHei-46"/>
       <use x="116.113281" xlink:href="#MicrosoftYaHei-50"/>
       <use x="174.755859" xlink:href="#MicrosoftYaHei-53"/>
       <use x="233.398438" xlink:href="#MicrosoftYaHei-44"/>
       <use x="257.470703" xlink:href="#MicrosoftYaHei-32"/>
       <use x="287.060547" xlink:href="#MicrosoftYaHei-48"/>
       <use x="345.703125" xlink:href="#MicrosoftYaHei-46"/>
       <use x="369.775391" xlink:href="#MicrosoftYaHei-51"/>
       <use x="428.417969" xlink:href="#MicrosoftYaHei-41"/>
      </g>
     </g>
    </g>
    <g id="xtick_4">
     <g id="line2d_4">
      <g>
       <use style="stroke:#000000;stroke-width:0.8;" x="590.4" xlink:href="#m7841e64295" y="504"/>
      </g>
     </g>
     <g id="text_4">
      <!-- [0.3, 0.325) -->
      <g transform="translate(564.375781 518.99375)scale(0.1 -0.1)">
       <use xlink:href="#MicrosoftYaHei-91"/>
       <use x="33.398438" xlink:href="#MicrosoftYaHei-48"/>
       <use x="92.041016" xlink:href="#MicrosoftYaHei-46"/>
       <use x="116.113281" xlink:href="#MicrosoftYaHei-51"/>
       <use x="174.755859" xlink:href="#MicrosoftYaHei-44"/>
       <use x="198.828125" xlink:href="#MicrosoftYaHei-32"/>
       <use x="228.417969" xlink:href="#MicrosoftYaHei-48"/>
       <use x="287.060547" xlink:href="#MicrosoftYaHei-46"/>
       <use x="311.132812" xlink:href="#MicrosoftYaHei-51"/>
       <use x="369.775391" xlink:href="#MicrosoftYaHei-50"/>
       <use x="428.417969" xlink:href="#MicrosoftYaHei-53"/>
       <use x="487.060547" xlink:href="#MicrosoftYaHei-41"/>
      </g>
     </g>
    </g>
    <g id="xtick_5">
     <g id="line2d_5">
      <g>
       <use style="stroke:#000000;stroke-width:0.8;" x="717.942857" xlink:href="#m7841e64295" y="504"/>
      </g>
     </g>
     <g id="text_5">
      <!-- [0.325, 0.375) -->
      <defs>
       <path d="M 53.46875 69.734375 
Q 41.546875 48.921875 34.734375 31.21875 
Q 27.9375 13.53125 26.3125 0 
L 16.359375 0 
Q 18.171875 13.328125 24.90625 30.421875 
Q 31.640625 47.515625 42.921875 67.1875 
L 5.421875 67.1875 
L 5.421875 75.640625 
L 53.46875 75.640625 
z
" id="MicrosoftYaHei-55"/>
      </defs>
      <g transform="translate(686.054576 518.99375)scale(0.1 -0.1)">
       <use xlink:href="#MicrosoftYaHei-91"/>
       <use x="33.398438" xlink:href="#MicrosoftYaHei-48"/>
       <use x="92.041016" xlink:href="#MicrosoftYaHei-46"/>
       <use x="116.113281" xlink:href="#MicrosoftYaHei-51"/>
       <use x="174.755859" xlink:href="#MicrosoftYaHei-50"/>
       <use x="233.398438" xlink:href="#MicrosoftYaHei-53"/>
       <use x="292.041016" xlink:href="#MicrosoftYaHei-44"/>
       <use x="316.113281" xlink:href="#MicrosoftYaHei-32"/>
       <use x="345.703125" xlink:href="#MicrosoftYaHei-48"/>
       <use x="404.345703" xlink:href="#MicrosoftYaHei-46"/>
       <use x="428.417969" xlink:href="#MicrosoftYaHei-51"/>
       <use x="487.060547" xlink:href="#MicrosoftYaHei-55"/>
       <use x="545.703125" xlink:href="#MicrosoftYaHei-53"/>
       <use x="604.345703" xlink:href="#MicrosoftYaHei-41"/>
      </g>
     </g>
    </g>
    <g id="xtick_6">
     <g id="line2d_6">
      <g>
       <use style="stroke:#000000;stroke-width:0.8;" x="845.485714" xlink:href="#m7841e64295" y="504"/>
      </g>
     </g>
     <g id="text_6">
      <!-- [0.375, 0.5) -->
      <g transform="translate(819.461496 518.99375)scale(0.1 -0.1)">
       <use xlink:href="#MicrosoftYaHei-91"/>
       <use x="33.398438" xlink:href="#MicrosoftYaHei-48"/>
       <use x="92.041016" xlink:href="#MicrosoftYaHei-46"/>
       <use x="116.113281" xlink:href="#MicrosoftYaHei-51"/>
       <use x="174.755859" xlink:href="#MicrosoftYaHei-55"/>
       <use x="233.398438" xlink:href="#MicrosoftYaHei-53"/>
       <use x="292.041016" xlink:href="#MicrosoftYaHei-44"/>
       <use x="316.113281" xlink:href="#MicrosoftYaHei-32"/>
       <use x="345.703125" xlink:href="#MicrosoftYaHei-48"/>
       <use x="404.345703" xlink:href="#MicrosoftYaHei-46"/>
       <use x="428.417969" xlink:href="#MicrosoftYaHei-53"/>
       <use x="487.060547" xlink:href="#MicrosoftYaHei-41"/>
      </g>
     </g>
    </g>
    <g id="xtick_7">
     <g id="line2d_7">
      <g>
       <use style="stroke:#000000;stroke-width:0.8;" x="973.028571" xlink:href="#m7841e64295" y="504"/>
      </g>
     </g>
     <g id="text_7">
      <!-- [0.5, 1.0) -->
      <g transform="translate(952.868415 518.99375)scale(0.1 -0.1)">
       <use xlink:href="#MicrosoftYaHei-91"/>
       <use x="33.398438" xlink:href="#MicrosoftYaHei-48"/>
       <use x="92.041016" xlink:href="#MicrosoftYaHei-46"/>
       <use x="116.113281" xlink:href="#MicrosoftYaHei-53"/>
       <use x="174.755859" xlink:href="#MicrosoftYaHei-44"/>
       <use x="198.828125" xlink:href="#MicrosoftYaHei-32"/>
       <use x="228.417969" xlink:href="#MicrosoftYaHei-49"/>
       <use x="287.060547" xlink:href="#MicrosoftYaHei-46"/>
       <use x="311.132812" xlink:href="#MicrosoftYaHei-48"/>
       <use x="369.775391" xlink:href="#MicrosoftYaHei-41"/>
      </g>
     </g>
    </g>
   </g>
   <g id="matplotlib.axis_2">
    <g id="ytick_1">
     <g id="line2d_8">
      <defs>
       <path d="M 0 0 
L -3.5 0 
" id="mbe860b60ee" style="stroke:#000000;stroke-width:0.8;"/>
      </defs>
      <g>
       <use style="stroke:#000000;stroke-width:0.8;" x="144" xlink:href="#mbe860b60ee" y="504"/>
      </g>
     </g>
     <g id="text_8">
      <!-- 0.0 -->
      <g transform="translate(122.864063 507.996875)scale(0.1 -0.1)">
       <use xlink:href="#MicrosoftYaHei-48"/>
       <use x="58.642578" xlink:href="#MicrosoftYaHei-46"/>
       <use x="82.714844" xlink:href="#MicrosoftYaHei-48"/>
      </g>
     </g>
    </g>
    <g id="ytick_2">
     <g id="line2d_9">
      <g>
       <use style="stroke:#000000;stroke-width:0.8;" x="144" xlink:href="#mbe860b60ee" y="408.893968"/>
      </g>
     </g>
     <g id="text_9">
      <!-- 0.1 -->
      <g transform="translate(122.864063 412.890843)scale(0.1 -0.1)">
       <use xlink:href="#MicrosoftYaHei-48"/>
       <use x="58.642578" xlink:href="#MicrosoftYaHei-46"/>
       <use x="82.714844" xlink:href="#MicrosoftYaHei-49"/>
      </g>
     </g>
    </g>
    <g id="ytick_3">
     <g id="line2d_10">
      <g>
       <use style="stroke:#000000;stroke-width:0.8;" x="144" xlink:href="#mbe860b60ee" y="313.787937"/>
      </g>
     </g>
     <g id="text_10">
      <!-- 0.2 -->
      <g transform="translate(122.864063 317.784812)scale(0.1 -0.1)">
       <use xlink:href="#MicrosoftYaHei-48"/>
       <use x="58.642578" xlink:href="#MicrosoftYaHei-46"/>
       <use x="82.714844" xlink:href="#MicrosoftYaHei-50"/>
      </g>
     </g>
    </g>
    <g id="ytick_4">
     <g id="line2d_11">
      <g>
       <use style="stroke:#000000;stroke-width:0.8;" x="144" xlink:href="#mbe860b60ee" y="218.681905"/>
      </g>
     </g>
     <g id="text_11">
      <!-- 0.3 -->
      <g transform="translate(122.864063 222.67878)scale(0.1 -0.1)">
       <use xlink:href="#MicrosoftYaHei-48"/>
       <use x="58.642578" xlink:href="#MicrosoftYaHei-46"/>
       <use x="82.714844" xlink:href="#MicrosoftYaHei-51"/>
      </g>
     </g>
    </g>
    <g id="ytick_5">
     <g id="line2d_12">
      <g>
       <use style="stroke:#000000;stroke-width:0.8;" x="144" xlink:href="#mbe860b60ee" y="123.575873"/>
      </g>
     </g>
     <g id="text_12">
      <!-- 0.4 -->
      <defs>
       <path d="M 45.40625 75.640625 
L 45.40625 25.6875 
L 56.734375 25.6875 
L 56.734375 17.78125 
L 45.40625 17.78125 
L 45.40625 0 
L 36.140625 0 
L 36.140625 17.78125 
L 0.828125 17.78125 
L 0.828125 25.25 
Q 10.25 35.84375 19.765625 49.65625 
Q 29.296875 63.484375 35.5 75.640625 
z
M 11.578125 25.6875 
L 36.140625 25.6875 
L 36.140625 61.71875 
Q 31.0625 52.59375 25.25 44.015625 
Q 19.4375 35.453125 11.578125 25.6875 
z
" id="MicrosoftYaHei-52"/>
      </defs>
      <g transform="translate(122.864063 127.572748)scale(0.1 -0.1)">
       <use xlink:href="#MicrosoftYaHei-48"/>
       <use x="58.642578" xlink:href="#MicrosoftYaHei-46"/>
       <use x="82.714844" xlink:href="#MicrosoftYaHei-52"/>
      </g>
     </g>
    </g>
   </g>
   <g id="patch_24">
    <path d="M 144 504 
L 144 69.12 
" style="fill:none;stroke:#000000;stroke-linecap:square;stroke-linejoin:miter;stroke-width:0.8;"/>
   </g>
   <g id="patch_25">
    <path d="M 1036.8 504 
L 1036.8 69.12 
" style="fill:none;stroke:#000000;stroke-linecap:square;stroke-linejoin:miter;stroke-width:0.8;"/>
   </g>
   <g id="patch_26">
    <path d="M 144 504 
L 1036.8 504 
" style="fill:none;stroke:#000000;stroke-linecap:square;stroke-linejoin:miter;stroke-width:0.8;"/>
   </g>
   <g id="patch_27">
    <path d="M 144 69.12 
L 1036.8 69.12 
" style="fill:none;stroke:#000000;stroke-linecap:square;stroke-linejoin:miter;stroke-width:0.8;"/>
   </g>
   <g id="text_13">
    <!-- 全体学生代码_平均相似度,抄袭率,被抄袭率_柱状分布 -->
    <defs>
     <path d="M 5.765625 -1.609375 
L 46.09375 -1.609375 
L 46.09375 15.375 
L 14.453125 15.375 
L 14.453125 22.515625 
L 46.09375 22.515625 
L 46.09375 37.546875 
L 18.0625 37.546875 
L 18.0625 44.671875 
L 82.328125 44.671875 
L 82.328125 37.546875 
L 54.203125 37.546875 
L 54.203125 22.515625 
L 85.9375 22.515625 
L 85.9375 15.375 
L 54.203125 15.375 
L 54.203125 -1.609375 
L 94.4375 -1.609375 
L 94.4375 -8.84375 
L 5.765625 -8.84375 
z
M 57.125 81.78125 
L 55.171875 79.34375 
Q 71.578125 57.859375 98.734375 47.015625 
Q 95.703125 42.71875 93.5625 39.203125 
Q 67.78125 51.90625 50.296875 73.296875 
Q 35.359375 53.953125 6.15625 37.9375 
Q 4.203125 41.265625 1.265625 45.265625 
Q 31.453125 60.40625 46.875 81.78125 
z
" id="MicrosoftYaHei-20840"/>
     <path d="M 99.21875 12.15625 
Q 95.90625 8.15625 93.453125 4.9375 
Q 73.921875 19.96875 64.75 55.8125 
L 64.75 14.59375 
L 79.109375 14.59375 
L 79.109375 7.5625 
L 64.75 7.5625 
L 64.75 -12.84375 
L 57.515625 -12.84375 
L 57.515625 7.5625 
L 43.171875 7.5625 
L 43.171875 14.59375 
L 57.515625 14.59375 
L 57.515625 55.8125 
L 57.28125 55.8125 
Q 48.1875 22.078125 27.34375 3.375 
Q 25.09375 6.203125 22.171875 9.515625 
Q 41.015625 26.765625 50.390625 55.8125 
L 27.4375 55.8125 
L 27.4375 62.84375 
L 57.515625 62.84375 
L 57.515625 82.765625 
L 64.75 82.765625 
L 64.75 62.84375 
L 95.90625 62.84375 
L 95.90625 55.8125 
L 71.046875 55.8125 
Q 80.375 25.4375 99.21875 12.15625 
z
M 0.875 35.890625 
Q 15.046875 56.59375 21.96875 83.0625 
L 29.390625 80.90625 
Q 25.59375 68.453125 20.796875 57.515625 
L 20.796875 -12.75 
L 13.578125 -12.75 
L 13.578125 42.828125 
Q 9.1875 34.859375 4.203125 27.875 
Q 2.734375 31.890625 0.875 35.890625 
z
" id="MicrosoftYaHei-20307"/>
     <path d="M 2.25 21.234375 
L 47.953125 21.234375 
L 47.953125 26.703125 
L 66.609375 37.25 
L 20.703125 37.25 
L 20.703125 44.390625 
L 78.03125 44.390625 
L 78.03125 36.1875 
L 55.859375 23.390625 
L 55.859375 21.234375 
L 97.859375 21.234375 
L 97.859375 14.109375 
L 55.859375 14.109375 
L 55.859375 -0.640625 
Q 55.859375 -12.15625 44.234375 -12.15625 
Q 37.796875 -12.15625 29.109375 -11.96875 
Q 28.8125 -8.640625 27.9375 -3.65625 
Q 35.75 -4.4375 42.875 -4.546875 
Q 47.953125 -4.640625 47.953125 0.828125 
L 47.953125 14.109375 
L 2.25 14.109375 
z
M 5.5625 61.078125 
L 94.625 61.078125 
L 94.625 41.359375 
L 86.921875 41.359375 
L 86.921875 53.953125 
L 13.28125 53.953125 
L 13.28125 41.359375 
L 5.5625 41.359375 
z
M 67.390625 66.75 
Q 73.921875 73.78125 79.6875 81.890625 
L 86.71875 76.703125 
Q 80.375 69.484375 73.140625 61.578125 
z
M 39.65625 79.9375 
L 46 83.640625 
Q 51.953125 75.828125 57.03125 67.71875 
L 50 63.71875 
Q 45.703125 71.34375 39.65625 79.9375 
z
M 13.28125 77 
L 19.046875 81.203125 
Q 25 74.65625 30.765625 67.046875 
L 24.125 62.359375 
Q 18.65625 70.65625 13.28125 77 
z
" id="MicrosoftYaHei-23398"/>
     <path d="M 1.953125 0.25 
L 47.265625 0.25 
L 47.265625 25.140625 
L 12.703125 25.140625 
L 12.703125 32.671875 
L 47.265625 32.671875 
L 47.265625 55.21875 
L 21.484375 55.21875 
Q 14.984375 43.5 6.546875 34.03125 
Q 4.5 37.25 1.265625 40.875 
Q 15.046875 56.296875 23.046875 78.5625 
L 31.0625 76.421875 
Q 28.46875 69.28125 25.34375 62.75 
L 47.265625 62.75 
L 47.265625 83.453125 
L 55.671875 83.453125 
L 55.671875 62.75 
L 92.96875 62.75 
L 92.96875 55.21875 
L 55.671875 55.21875 
L 55.671875 32.671875 
L 90.234375 32.671875 
L 90.234375 25.140625 
L 55.671875 25.140625 
L 55.671875 0.25 
L 98.25 0.25 
L 98.25 -7.078125 
L 1.953125 -7.078125 
z
" id="MicrosoftYaHei-29983"/>
     <path d="M 28.90625 49.078125 
L 52 51.609375 
Q 50.828125 64.015625 50.390625 82.5625 
L 58.890625 82.5625 
Q 58.6875 67.96875 60.109375 52.484375 
L 95.90625 56.390625 
L 96.78125 49.171875 
L 60.890625 45.21875 
Q 66.40625 4.78125 82.125 -3.265625 
Q 86.421875 -5.03125 87.703125 -0.4375 
Q 89.546875 6.5 90.828125 15.28125 
Q 94.921875 13.53125 98.640625 12.453125 
Q 97.171875 2.984375 95.125 -4.34375 
Q 92.484375 -12.84375 84.671875 -12.640625 
Q 76.265625 -12.359375 68.65625 -2.59375 
Q 57.328125 10.59375 52.875 44.34375 
L 30.078125 41.84375 
z
M 0.59375 36.28125 
Q 15.828125 56.78125 24.703125 83.15625 
L 32.515625 80.421875 
Q 28.171875 69.046875 23.4375 59.28125 
L 23.4375 -13.140625 
L 15.4375 -13.140625 
L 15.4375 44.28125 
Q 9.859375 34.96875 3.90625 27.484375 
Q 2.546875 31.5 0.59375 36.28125 
z
M 67.875 74.859375 
L 72.953125 80.03125 
Q 81.546875 73.484375 90.53125 65.484375 
L 84.578125 59.421875 
Q 76.375 67.828125 67.875 74.859375 
z
" id="MicrosoftYaHei-20195"/>
     <path d="M 1.171875 28.953125 
Q 13.09375 45.453125 18.40625 66.65625 
L 4 66.65625 
L 4 73.875 
L 40.53125 73.875 
L 40.53125 66.65625 
L 25.921875 66.65625 
Q 22.859375 54.390625 18.109375 43.796875 
L 37.015625 43.796875 
L 37.015625 -9.125 
L 30.078125 -9.125 
L 30.078125 -2.390625 
L 17.875 -2.390625 
L 17.875 -10.40625 
L 10.9375 -10.40625 
L 10.9375 30.28125 
Q 8.34375 26.125 5.46875 22.3125 
Q 4 25.046875 1.171875 28.953125 
z
M 56.640625 66.65625 
L 54.109375 38.03125 
L 77.09375 38.03125 
L 80.375 70.171875 
L 44.34375 70.171875 
L 44.34375 77.203125 
L 88.578125 77.203125 
L 84.46875 38.03125 
L 94.828125 38.03125 
Q 94.046875 18.21875 93.265625 3.65625 
Q 92.390625 -10.890625 79.390625 -10.890625 
Q 72.859375 -10.890625 64.75 -10.59375 
Q 64.15625 -6.984375 63.375 -2.484375 
Q 71.296875 -3.375 77.640625 -3.375 
Q 85.15625 -3.375 85.75 4.9375 
Q 86.53125 15.765625 86.921875 31 
L 46.1875 31 
L 49.21875 66.65625 
z
M 30.078125 37.15625 
L 17.875 37.15625 
L 17.875 4.046875 
L 30.078125 4.046875 
z
M 40.921875 17.828125 
L 82.125 17.828125 
L 82.125 10.796875 
L 40.921875 10.796875 
z
" id="MicrosoftYaHei-30721"/>
     <path d="M 44.828125 -25.53125 
L 0 -25.53125 
L 0 -19.234375 
L 44.828125 -19.234375 
z
" id="MicrosoftYaHei-95"/>
     <path d="M 2.640625 30.21875 
L 45.90625 30.21875 
L 45.90625 71.046875 
L 7.03125 71.046875 
L 7.03125 78.5625 
L 93.359375 78.5625 
L 93.359375 71.046875 
L 54.109375 71.046875 
L 54.109375 30.21875 
L 97.65625 30.21875 
L 97.65625 22.703125 
L 54.109375 22.703125 
L 54.109375 -13.234375 
L 45.90625 -13.234375 
L 45.90625 22.703125 
L 2.640625 22.703125 
z
M 61.71875 39.984375 
Q 72.46875 51.3125 81.0625 64.984375 
L 88.375 60.296875 
Q 77.34375 45.171875 67.78125 34.90625 
z
M 12.015625 60.296875 
L 18.171875 64.59375 
Q 29.109375 51.8125 37.015625 39.890625 
L 30.078125 34.71875 
Q 22.5625 46.921875 12.015625 60.296875 
z
" id="MicrosoftYaHei-24179"/>
     <path d="M 35.0625 43.796875 
Q 45.796875 61.765625 52.15625 83.15625 
L 59.96875 80.8125 
Q 57.671875 74.125 55.171875 67.921875 
L 93.953125 67.921875 
Q 92.578125 16.453125 91.796875 4.640625 
Q 91.109375 -10.890625 75.09375 -10.890625 
Q 65.4375 -10.890625 57.90625 -10.5 
Q 57.328125 -6.59375 56.34375 -2.203125 
L 56.640625 -2.203125 
Q 66.40625 -3.265625 74.609375 -3.265625 
Q 83.59375 -3.265625 84.28125 5.90625 
Q 85.25 22.609375 86.140625 60.796875 
L 52.203125 60.796875 
Q 47.3125 49.5625 41.796875 40.1875 
Q 38.765625 42.046875 35.0625 43.796875 
z
M 1.265625 6.6875 
Q 8.734375 9.375 15.71875 12.015625 
L 15.71875 50.828125 
L 2.640625 50.828125 
L 2.640625 57.765625 
L 15.71875 57.765625 
L 15.71875 82.171875 
L 22.953125 82.171875 
L 22.953125 57.765625 
L 35.640625 57.765625 
L 35.640625 50.828125 
L 22.953125 50.828125 
L 22.953125 14.796875 
Q 30.03125 17.578125 36.53125 20.359375 
Q 36.71875 15.484375 37.015625 12.25 
Q 21.296875 6.296875 3.90625 -0.828125 
z
M 39.265625 13.328125 
Q 58.890625 21.140625 79.984375 30.21875 
Q 80.46875 25.640625 81.0625 22.40625 
Q 62.984375 14.796875 42.28125 5.609375 
z
M 49.03125 45.453125 
L 54.390625 50.25 
Q 62.890625 42.4375 70.796875 34.625 
L 64.453125 29.046875 
Q 56.9375 37.640625 49.03125 45.453125 
z
" id="MicrosoftYaHei-22343"/>
     <path d="M 42.78125 76.421875 
L 94.140625 76.421875 
L 94.140625 -12.84375 
L 86.71875 -12.84375 
L 86.71875 -6.203125 
L 50.203125 -6.203125 
L 50.203125 -12.84375 
L 42.78125 -12.84375 
z
M 1.46875 22.015625 
Q 12.25 37.0625 17.625 56.59375 
L 2.640625 56.59375 
L 2.640625 63.140625 
L 17.78125 63.140625 
L 17.78125 82.5625 
L 24.90625 82.5625 
L 24.90625 63.140625 
L 39.15625 63.140625 
L 39.15625 56.59375 
L 24.90625 56.59375 
L 24.90625 39.59375 
L 28.8125 43.609375 
Q 35.546875 37.0625 41.21875 31 
L 35.9375 25.828125 
Q 30.5625 32.171875 24.90625 38.1875 
L 24.90625 -12.640625 
L 17.78125 -12.640625 
L 17.78125 38.1875 
Q 12.5 23.6875 4.984375 13.53125 
Q 3.515625 17.71875 1.46875 22.015625 
z
M 50.203125 0.4375 
L 86.71875 0.4375 
L 86.71875 19.390625 
L 50.203125 19.390625 
z
M 86.71875 69.78125 
L 50.203125 69.78125 
L 50.203125 51.03125 
L 86.71875 51.03125 
z
M 50.203125 25.828125 
L 86.71875 25.828125 
L 86.71875 44.578125 
L 50.203125 44.578125 
z
" id="MicrosoftYaHei-30456"/>
     <path d="M 80.28125 80.125 
L 88.09375 80.125 
Q 88.09375 49.265625 85.9375 34.03125 
Q 84.625 24.3125 80.953125 16.015625 
Q 91.265625 3.765625 98.734375 -5.515625 
L 91.703125 -10.984375 
Q 85.453125 -1.515625 77.390625 9.078125 
Q 69.484375 -4.15625 54.6875 -13.234375 
Q 52.15625 -10.203125 48.640625 -6.78125 
Q 73.921875 6.6875 78.328125 35.203125 
Q 80.28125 47.515625 80.28125 80.125 
z
M 1.265625 35.59375 
Q 14.453125 57.953125 19.4375 83.0625 
L 26.65625 81.5 
Q 24.21875 71 20.796875 61.1875 
L 20.796875 -12.9375 
L 13.1875 -12.9375 
L 13.1875 42.921875 
Q 9.28125 34.859375 4.59375 27.296875 
Q 3.03125 31.5 1.265625 35.59375 
z
M 65.046875 29.734375 
Q 65.4375 23.96875 65.828125 20.5625 
Q 54.78125 13.53125 40.4375 3.65625 
Q 37.796875 1.703125 35.359375 -0.4375 
L 29.890625 6.203125 
Q 33.40625 9.328125 33.40625 15.09375 
L 33.40625 72.40625 
L 41.015625 72.40625 
L 41.015625 13.921875 
Q 51.375 20.5625 65.046875 29.734375 
z
M 49.421875 78.953125 
L 56.15625 82.46875 
Q 64.265625 68.3125 69.828125 57.5625 
L 62.109375 53.5625 
Q 55.46875 68.015625 49.421875 78.953125 
z
" id="MicrosoftYaHei-20284"/>
     <path d="M 24.21875 19 
L 24.21875 25.4375 
L 85.453125 25.4375 
L 85.453125 19.09375 
Q 76.609375 9.578125 64.796875 2.546875 
Q 78.90625 -3.125 97.859375 -4.828125 
L 94.046875 -12.453125 
Q 72.265625 -9.421875 56.9375 -1.703125 
Q 40.625 -9.671875 19.53125 -13.53125 
Q 17.96875 -10.40625 15.53125 -6.5 
Q 34.859375 -3.46875 49.46875 2.59375 
Q 39.015625 9.375 32.28125 19 
z
M 21.296875 55.328125 
L 35.84375 55.328125 
L 35.84375 63.53125 
L 43.265625 63.53125 
L 43.265625 55.328125 
L 70.90625 55.328125 
L 70.90625 63.625 
L 78.328125 63.625 
L 78.328125 55.328125 
L 96.09375 55.328125 
L 96.09375 48.875 
L 78.328125 48.875 
L 78.328125 30.125 
L 70.90625 30.125 
L 70.90625 33.546875 
L 43.265625 33.546875 
L 43.265625 30.03125 
L 35.84375 30.03125 
L 35.84375 48.875 
L 21.296875 48.875 
z
M 47.265625 80.8125 
L 54.390625 84.234375 
Q 57.71875 79 61.078125 72.40625 
L 97.078125 72.40625 
L 97.078125 65.578125 
L 19.140625 65.578125 
L 19.140625 36.1875 
Q 19.140625 2.78125 6.15625 -13.625 
Q 3.71875 -10.40625 0.59375 -6.984375 
Q 11.328125 6.203125 11.53125 36.671875 
L 11.53125 72.40625 
L 52.046875 72.40625 
Q 49.8125 76.703125 47.265625 80.8125 
z
M 43.265625 39.796875 
L 70.90625 39.796875 
L 70.90625 48.875 
L 43.265625 48.875 
z
M 75.296875 19 
L 40.4375 19 
Q 47.359375 11.375 57.125 6.109375 
Q 67.71875 11.578125 75.296875 19 
z
" id="MicrosoftYaHei-24230"/>
     <path d="M 1.46875 30.71875 
Q 8.890625 32.8125 15.71875 34.859375 
L 15.71875 56.890625 
L 2.34375 56.890625 
L 2.34375 63.71875 
L 15.71875 63.71875 
L 15.71875 82.375 
L 23.25 82.375 
L 23.25 63.71875 
L 35.0625 63.71875 
L 35.0625 56.890625 
L 23.25 56.890625 
L 23.25 37.25 
Q 28.421875 38.921875 33.203125 40.578125 
Q 33.203125 36.28125 33.40625 32.953125 
Q 28.125 31.296875 23.25 29.6875 
L 23.25 -0.921875 
Q 23.25 -11.578125 13.765625 -11.765625 
Q 10.15625 -11.859375 4 -11.765625 
Q 3.421875 -7.46875 2.640625 -3.65625 
Q 7.515625 -4.34375 12.015625 -4.25 
Q 15.921875 -4.15625 15.71875 0.34375 
L 15.71875 27.25 
Q 8.59375 24.8125 2.4375 22.609375 
z
M 27.4375 -4.828125 
Q 69.828125 3.859375 87.5 36.078125 
L 94.140625 31.203125 
Q 74.3125 -2.484375 31.546875 -11.859375 
Q 29.6875 -8.25 27.4375 -4.828125 
z
M 61.71875 81.984375 
L 69.4375 81.984375 
L 69.4375 20.65625 
L 61.71875 20.65625 
z
M 45.796875 66.546875 
L 53.328125 64.59375 
Q 49.125 48 43.359375 31.109375 
Q 39.65625 32.671875 35.640625 33.84375 
Q 42.28125 50.640625 45.796875 66.546875 
z
M 77.34375 64.59375 
L 83.984375 67.53125 
Q 91.5 55.421875 98.140625 42.234375 
L 91.109375 38.71875 
Q 85.0625 51.90625 77.34375 64.59375 
z
" id="MicrosoftYaHei-25220"/>
     <path d="M 8.203125 72.21875 
L 37.59375 72.21875 
Q 38.96875 77.4375 39.453125 83.640625 
L 46.875 82.671875 
Q 46.234375 77.046875 45.125 72.21875 
L 70.703125 72.21875 
Q 66.65625 75.390625 61.421875 78.765625 
L 65.234375 83.453125 
Q 71.6875 79.828125 76.859375 75.921875 
L 73.875 72.21875 
L 93.75 72.21875 
L 93.75 65.96875 
L 62.015625 65.96875 
L 62.015625 55.28125 
Q 72.515625 59.125 80.859375 63.921875 
L 84.765625 58.15625 
Q 73.96875 52.640625 62.109375 48.296875 
Q 62.796875 43.5 68.84375 43.5 
L 81.15625 43.5 
Q 87.796875 43.5 88.671875 49.359375 
Q 89.359375 53.5625 89.84375 60.203125 
Q 92.96875 58.640625 96.6875 57.375 
Q 95.796875 51.03125 95.015625 46.921875 
Q 93.265625 37.25 82.8125 37.25 
L 67.28125 37.25 
Q 56.84375 37.25 55.21875 45.90625 
Q 45.84375 42.828125 35.84375 40.484375 
Q 34.578125 43.890625 32.625 47.21875 
Q 44.671875 49.65625 54.984375 52.875 
L 54.984375 65.96875 
L 43.3125 65.96875 
Q 37.984375 46.734375 7.90625 33.84375 
Q 4.59375 38.71875 3.328125 40.09375 
Q 30.46875 51.03125 35.5 65.96875 
L 8.203125 65.96875 
z
M 57.125 3.5625 
Q 56.84375 -0.4375 56.84375 -4.046875 
Q 44.53125 -7.5625 36.53125 -10.40625 
Q 33.015625 -11.671875 29.5 -13.625 
L 25.390625 -7.671875 
Q 27.734375 -5.609375 27.734375 -0.4375 
L 27.734375 6.78125 
Q 18.015625 1.265625 5.765625 -3.375 
Q 4 -0.25 1.5625 3.265625 
Q 24.3125 10.40625 39.59375 23.390625 
L 5.078125 23.390625 
L 5.078125 29.640625 
L 95.125 29.640625 
L 95.125 23.390625 
L 54.734375 23.390625 
Q 58.6875 16.5 64.65625 11.375 
Q 72.40625 14.9375 85.546875 22.21875 
L 89.84375 15.375 
Q 77.734375 10.5 70.3125 7.234375 
Q 81.640625 0.09375 98.53125 -2.203125 
Q 95.609375 -6.109375 93.171875 -9.515625 
Q 61.421875 -3.265625 47.796875 21.828125 
Q 42.234375 16.15625 34.765625 11.140625 
L 34.765625 -3.265625 
Q 46.6875 0.140625 57.125 3.5625 
z
M 42.484375 38.71875 
L 48.25 41.9375 
Q 51.5625 37.453125 54.203125 33.15625 
L 48.140625 29.734375 
Q 45.796875 33.9375 42.484375 38.71875 
z
" id="MicrosoftYaHei-34989"/>
     <path d="M 39.453125 31.390625 
Q 40.96875 31.5 61.375 32.515625 
Q 58.9375 35.9375 56.640625 38.921875 
L 61.921875 42.234375 
Q 68.953125 34.421875 74.90625 25.828125 
L 68.65625 21.921875 
Q 66.9375 24.515625 65.28125 26.953125 
Q 46.734375 25.921875 34.578125 24.953125 
Q 32.421875 24.75 29.390625 24.078125 
L 26.953125 30.71875 
Q 29.890625 31.6875 31.34375 32.5625 
Q 39.59375 38.140625 47.65625 45.515625 
Q 40.578125 45.21875 35.546875 44.78125 
Q 33.5 44.484375 31.0625 43.890625 
L 28.125 49.859375 
Q 30.5625 50.734375 32.625 52.59375 
Q 39.203125 58.15625 44.921875 66.0625 
L 3.609375 66.0625 
L 3.609375 72.90625 
L 47.359375 72.90625 
Q 44.96875 77.25 42.875 80.515625 
L 49.90625 83.9375 
Q 53.71875 78.125 56.5 72.90625 
L 96.484375 72.90625 
L 96.484375 66.0625 
L 47.703125 66.0625 
L 52.34375 63.625 
Q 44.4375 55.515625 38.96875 50.734375 
Q 44.53125 50.875 53.515625 51.078125 
Q 57.421875 54.984375 61.328125 59.328125 
L 68.0625 55.421875 
Q 52.546875 40.671875 39.453125 31.390625 
z
M 2.25 15.484375 
L 46.78125 15.484375 
L 46.78125 24.078125 
L 54.5 24.078125 
L 54.5 15.484375 
L 98.046875 15.484375 
L 98.046875 8.640625 
L 54.5 8.640625 
L 54.5 -13.328125 
L 46.78125 -13.328125 
L 46.78125 8.640625 
L 2.25 8.640625 
z
M 26.859375 41.75 
L 30.375 35.984375 
Q 18.75 29.15625 6.640625 22.015625 
L 2.546875 28.5625 
Q 12.703125 33.34375 26.859375 41.75 
z
M 75.875 41.84375 
Q 89.84375 33.9375 97.65625 28.375 
L 93.359375 22.015625 
Q 83.296875 29.828125 71.875 36.578125 
z
M 93.65625 56.109375 
Q 86.234375 49.65625 77.546875 43.890625 
L 72.5625 49.078125 
Q 81.9375 55.21875 88.09375 61.375 
z
M 5.671875 56.78125 
L 10.640625 61.578125 
Q 18.75 55.125 24.8125 49.359375 
L 19.34375 44 
Q 13.671875 49.953125 5.671875 56.78125 
z
" id="MicrosoftYaHei-29575"/>
     <path d="M 40.71875 68.609375 
L 66.015625 68.609375 
L 66.015625 82.859375 
L 73.046875 82.859375 
L 73.046875 68.609375 
L 96.296875 68.609375 
L 96.296875 62.453125 
Q 94.34375 55.71875 91.3125 49.359375 
Q 88.375 50.734375 84.671875 51.90625 
Q 87.203125 56.984375 88.765625 62.15625 
L 73.046875 62.15625 
L 73.046875 43.015625 
L 90.53125 43.015625 
L 90.53125 37.15625 
Q 85.796875 18.65625 75.6875 6.78125 
Q 83.796875 -0.390625 98.640625 -5.421875 
Q 95.703125 -8.9375 93.0625 -12.75 
Q 79 -6.546875 70.453125 1.609375 
Q 60.6875 -7.171875 46.875 -13.03125 
Q 44.734375 -9.71875 42 -6.59375 
Q 56.78125 -0.921875 65.671875 6.734375 
Q 55.859375 17.828125 52.4375 36.578125 
L 47.5625 36.578125 
L 47.5625 31.390625 
Q 47.5625 3.078125 32.515625 -13.03125 
Q 30.078125 -9.625 27.546875 -6.984375 
Q 40.71875 8.0625 40.71875 31.390625 
z
M 1.953125 56.890625 
L 1.953125 64.015625 
L 33.984375 64.015625 
L 33.984375 56.6875 
Q 28.765625 47.46875 22.078125 38.8125 
L 22.078125 36.53125 
Q 24.03125 34.578125 25.78125 32.765625 
Q 30.421875 37.984375 33.40625 41.9375 
L 38.578125 37.640625 
Q 35.15625 33.546875 29.984375 28.375 
Q 33.796875 24.3125 36.625 21.046875 
L 31.734375 15.96875 
Q 27.6875 21.34375 22.078125 27.640625 
L 22.078125 -12.453125 
L 15.234375 -12.453125 
L 15.234375 30.671875 
Q 10.015625 24.90625 4.109375 19.390625 
Q 3.03125 23.1875 1.375 27.875 
Q 17.28125 41.15625 25.390625 56.890625 
z
M 47.5625 43.015625 
L 66.015625 43.015625 
L 66.015625 62.15625 
L 47.5625 62.15625 
z
M 82.90625 36.578125 
L 59.1875 36.578125 
Q 62.3125 21.96875 70.75 11.96875 
Q 78.65625 21.734375 82.90625 36.578125 
z
M 11.53125 80.328125 
L 18.171875 83.640625 
Q 22.5625 76.90625 25.875 70.0625 
L 18.84375 66.546875 
Q 16.015625 72.703125 11.53125 80.328125 
z
" id="MicrosoftYaHei-34987"/>
     <path d="M 34.1875 -0.25 
L 62.3125 -0.25 
L 62.3125 28.265625 
L 40.4375 28.265625 
L 40.4375 35.296875 
L 62.3125 35.296875 
L 62.3125 58.546875 
L 37.5 58.546875 
L 37.5 65.578125 
L 95.609375 65.578125 
L 95.609375 58.546875 
L 70.3125 58.546875 
L 70.3125 35.296875 
L 92.484375 35.296875 
L 92.484375 28.265625 
L 70.3125 28.265625 
L 70.3125 -0.25 
L 98.734375 -0.25 
L 98.734375 -7.28125 
L 34.1875 -7.28125 
z
M 0.984375 21.921875 
Q 10.015625 36.53125 14.796875 56 
L 2.4375 56 
L 2.4375 62.75 
L 15.328125 62.75 
L 15.328125 82.671875 
L 22.859375 82.671875 
L 22.859375 62.75 
L 34.578125 62.75 
L 34.578125 56 
L 22.859375 56 
L 22.859375 39.109375 
L 26.078125 42.140625 
Q 31.546875 36.96875 37.109375 30.90625 
L 31.640625 26.03125 
Q 27.34375 31.390625 22.859375 36.1875 
L 22.859375 -12.75 
L 15.328125 -12.75 
L 15.328125 38.28125 
Q 10.59375 23.09375 4.109375 13.328125 
Q 2.734375 17.53125 0.984375 21.921875 
z
M 56.734375 79.9375 
L 63.1875 83.9375 
Q 68.453125 77.6875 72.5625 71.4375 
L 65.71875 66.9375 
Q 62.203125 73 56.734375 79.9375 
z
" id="MicrosoftYaHei-26609"/>
     <path d="M 34.578125 54.9375 
L 59.234375 54.9375 
Q 59.765625 68.265625 59.765625 82.765625 
L 67.578125 82.765625 
Q 67.578125 67.78125 67.09375 54.9375 
L 96.484375 54.9375 
L 96.484375 47.609375 
L 67.328125 47.609375 
Q 76.3125 9.8125 98.640625 -3.5625 
Q 94.828125 -7.671875 92.28125 -10.984375 
Q 72.46875 4.15625 64.359375 32.90625 
Q 58.84375 6.453125 36.921875 -12.640625 
Q 33.890625 -8.453125 31.453125 -6 
Q 56.25 13.328125 58.84375 47.609375 
L 34.578125 47.609375 
z
M 23.34375 83.0625 
L 31.15625 83.0625 
L 31.15625 -13.03125 
L 23.34375 -13.03125 
L 23.34375 25.09375 
Q 14.3125 17.484375 6.25 10.796875 
L 1.171875 17.53125 
Q 12.015625 25.4375 23.34375 34.71875 
z
M 3.421875 64.59375 
L 10.0625 67.71875 
Q 15.921875 57.375 20.40625 45.0625 
L 12.984375 41.65625 
Q 8.109375 55.328125 3.421875 64.59375 
z
M 78.21875 78.953125 
Q 86.71875 72.515625 92.96875 66.84375 
Q 90.234375 63.71875 87.59375 60.6875 
Q 80.46875 67.625 73.140625 73.6875 
z
" id="MicrosoftYaHei-29366"/>
     <path d="M 14.0625 39.984375 
L 79 39.984375 
Q 78.515625 23.390625 77.546875 7.5625 
Q 76.375 -10.6875 60.25 -10.59375 
Q 52.34375 -10.6875 43.5625 -10.109375 
Q 42.96875 -6 42.1875 -1.8125 
Q 49.703125 -2.875 58.984375 -2.984375 
Q 68.75 -3.171875 69.734375 8.453125 
Q 70.515625 19 70.90625 32.765625 
L 40.875 32.765625 
Q 39.703125 16.453125 34.078125 6.5 
Q 26.65625 -6.59375 9.1875 -13.71875 
Q 6.640625 -10.40625 3.609375 -7.171875 
Q 19.828125 -1.125 26.953125 10.40625 
Q 32.078125 19.140625 32.859375 32.765625 
L 14.0625 32.765625 
z
M 54.5 80.609375 
L 61.53125 83.640625 
Q 72.265625 57.46875 99.21875 44.484375 
Q 94.828125 39.890625 92.875 37.0625 
Q 66.015625 52.59375 54.5 80.609375 
z
M 0.78125 43.21875 
Q 20.90625 57.46875 35.15625 82.078125 
L 42.09375 78.265625 
Q 27.25 52.296875 6.453125 36.578125 
Q 4.390625 39.59375 0.78125 43.21875 
z
" id="MicrosoftYaHei-20998"/>
     <path d="M 50.78125 57.28125 
L 58.59375 57.28125 
L 58.59375 42.234375 
L 88.765625 42.234375 
L 88.765625 8.453125 
Q 88.765625 -3.078125 78.90625 -3.078125 
Q 76.375 -3.078125 64.359375 -2.984375 
Q 63.765625 0.25 62.796875 4.9375 
Q 72.5625 4.34375 74.515625 4.34375 
Q 81.0625 4.15625 81.0625 10.40625 
L 81.0625 35.203125 
L 58.59375 35.203125 
L 58.59375 -12.9375 
L 50.78125 -12.9375 
L 50.78125 35.203125 
L 28.8125 35.203125 
L 28.8125 -5.515625 
L 21.09375 -5.515625 
L 21.09375 33.015625 
Q 14.5 24.265625 7.03125 16.0625 
Q 4.59375 19.578125 1.46875 22.609375 
Q 19.390625 41.359375 30.765625 62.25 
L 3.125 62.25 
L 3.125 69.28125 
L 34.375 69.28125 
Q 37.796875 76.3125 40.53125 83.640625 
L 48.25 80.515625 
Q 45.84375 74.8125 43.21875 69.28125 
L 97.65625 69.28125 
L 97.65625 62.25 
L 39.65625 62.25 
Q 34.1875 51.953125 27.6875 42.234375 
L 50.78125 42.234375 
z
" id="MicrosoftYaHei-24067"/>
    </defs>
    <g transform="translate(415.064062 63.12)scale(0.15 -0.15)">
     <use xlink:href="#MicrosoftYaHei-20840"/>
     <use x="100" xlink:href="#MicrosoftYaHei-20307"/>
     <use x="200" xlink:href="#MicrosoftYaHei-23398"/>
     <use x="300" xlink:href="#MicrosoftYaHei-29983"/>
     <use x="400" xlink:href="#MicrosoftYaHei-20195"/>
     <use x="500" xlink:href="#MicrosoftYaHei-30721"/>
     <use x="600" xlink:href="#MicrosoftYaHei-95"/>
     <use x="644.824219" xlink:href="#MicrosoftYaHei-24179"/>
     <use x="744.824219" xlink:href="#MicrosoftYaHei-22343"/>
     <use x="844.824219" xlink:href="#MicrosoftYaHei-30456"/>
     <use x="944.824219" xlink:href="#MicrosoftYaHei-20284"/>
     <use x="1044.824219" xlink:href="#MicrosoftYaHei-24230"/>
     <use x="1144.824219" xlink:href="#MicrosoftYaHei-44"/>
     <use x="1168.896484" xlink:href="#MicrosoftYaHei-25220"/>
     <use x="1268.896484" xlink:href="#MicrosoftYaHei-34989"/>
     <use x="1368.896484" xlink:href="#MicrosoftYaHei-29575"/>
     <use x="1468.896484" xlink:href="#MicrosoftYaHei-44"/>
     <use x="1492.96875" xlink:href="#MicrosoftYaHei-34987"/>
     <use x="1592.96875" xlink:href="#MicrosoftYaHei-25220"/>
     <use x="1692.96875" xlink:href="#MicrosoftYaHei-34989"/>
     <use x="1792.96875" xlink:href="#MicrosoftYaHei-29575"/>
     <use x="1892.96875" xlink:href="#MicrosoftYaHei-95"/>
     <use x="1937.792969" xlink:href="#MicrosoftYaHei-26609"/>
     <use x="2037.792969" xlink:href="#MicrosoftYaHei-29366"/>
     <use x="2137.792969" xlink:href="#MicrosoftYaHei-20998"/>
     <use x="2237.792969" xlink:href="#MicrosoftYaHei-24067"/>
    </g>
   </g>
   <g id="legend_1">
    <g id="patch_28">
     <path d="M 947.8 123.559062 
L 1029.8 123.559062 
Q 1031.8 123.559062 1031.8 121.559062 
L 1031.8 76.12 
Q 1031.8 74.12 1029.8 74.12 
L 947.8 74.12 
Q 945.8 74.12 945.8 76.12 
L 945.8 121.559062 
Q 945.8 123.559062 947.8 123.559062 
z
" style="fill:#ffffff;opacity:0.8;stroke:#cccccc;stroke-linejoin:miter;"/>
    </g>
    <g id="patch_29">
     <path d="M 949.8 86.11375 
L 969.8 86.11375 
L 969.8 79.11375 
L 949.8 79.11375 
z
" style="fill:#1f77b4;"/>
    </g>
    <g id="text_14">
     <!-- 平均相似度 -->
     <g transform="translate(977.8 86.11375)scale(0.1 -0.1)">
      <use xlink:href="#MicrosoftYaHei-24179"/>
      <use x="100" xlink:href="#MicrosoftYaHei-22343"/>
      <use x="200" xlink:href="#MicrosoftYaHei-30456"/>
      <use x="300" xlink:href="#MicrosoftYaHei-20284"/>
      <use x="400" xlink:href="#MicrosoftYaHei-24230"/>
     </g>
    </g>
    <g id="patch_30">
     <path d="M 949.8 101.593437 
L 969.8 101.593437 
L 969.8 94.593437 
L 949.8 94.593437 
z
" style="fill:#ff7f0e;"/>
    </g>
    <g id="text_15">
     <!-- 抄袭率 -->
     <g transform="translate(977.8 101.593437)scale(0.1 -0.1)">
      <use xlink:href="#MicrosoftYaHei-25220"/>
      <use x="100" xlink:href="#MicrosoftYaHei-34989"/>
      <use x="200" xlink:href="#MicrosoftYaHei-29575"/>
     </g>
    </g>
    <g id="patch_31">
     <path d="M 949.8 117.073125 
L 969.8 117.073125 
L 969.8 110.073125 
L 949.8 110.073125 
z
" style="fill:#2ca02c;"/>
    </g>
    <g id="text_16">
     <!-- 被抄袭率 -->
     <g transform="translate(977.8 117.073125)scale(0.1 -0.1)">
      <use xlink:href="#MicrosoftYaHei-34987"/>
      <use x="100" xlink:href="#MicrosoftYaHei-25220"/>
      <use x="200" xlink:href="#MicrosoftYaHei-34989"/>
      <use x="300" xlink:href="#MicrosoftYaHei-29575"/>
     </g>
    </g>
   </g>
  </g>
 </g>
 <defs>
  <clipPath id="p6ca7e2635e">
   <rect height="434.88" width="892.8" x="144" y="69.12"/>
  </clipPath>
 </defs>
</svg>
