<?xml version="1.0" encoding="utf-8" standalone="no"?>
<!DOCTYPE svg PUBLIC "-//W3C//DTD SVG 1.1//EN"
  "http://www.w3.org/Graphics/SVG/1.1/DTD/svg11.dtd">
<!-- Created with matplotlib (https://matplotlib.org/) -->
<svg height="648pt" version="1.1" viewBox="0 0 864 648" width="864pt" xmlns="http://www.w3.org/2000/svg" xmlns:xlink="http://www.w3.org/1999/xlink">
 <defs>
  <style type="text/css">
*{stroke-linecap:butt;stroke-linejoin:round;}
  </style>
 </defs>
 <g id="figure_1">
  <g id="patch_1">
   <path d="M 0 648 
L 864 648 
L 864 0 
L 0 0 
z
" style="fill:#ffffff;"/>
  </g>
  <g id="axes_1">
   <g id="patch_2">
    <path d="M 108 567 
L 777.6 567 
L 777.6 77.76 
L 108 77.76 
z
" style="fill:#ffffff;"/>
   </g>
   <g id="matplotlib.axis_1">
    <g id="xtick_1">
     <g id="line2d_1">
      <defs>
       <path d="M 0 0 
L 0 3.5 
" id="mea2b7b3e3c" style="stroke:#000000;stroke-width:0.8;"/>
      </defs>
      <g>
       <use style="stroke:#000000;stroke-width:0.8;" x="182.874329" xlink:href="#mea2b7b3e3c" y="567"/>
      </g>
     </g>
     <g id="text_1">
      <!-- −0.2 -->
      <defs>
       <path d="M 62.0625 27.6875 
L 12.3125 27.6875 
L 12.3125 35.15625 
L 62.0625 35.15625 
z
" id="MicrosoftYaHei-8722"/>
       <path d="M 4.4375 36.328125 
Q 4.4375 56.34375 11.078125 66.625 
Q 17.71875 76.90625 30.328125 76.90625 
Q 54.34375 76.90625 54.34375 38.140625 
Q 54.34375 19 47.578125 8.859375 
Q 40.828125 -1.265625 28.609375 -1.265625 
Q 17.09375 -1.265625 10.765625 8.34375 
Q 4.4375 17.96875 4.4375 36.328125 
z
M 14.203125 36.765625 
Q 14.203125 6.640625 29.5 6.640625 
Q 44.53125 6.640625 44.53125 37.25 
Q 44.53125 68.953125 29.78125 68.953125 
Q 14.203125 68.953125 14.203125 36.765625 
z
" id="MicrosoftYaHei-48"/>
       <path d="M 5.8125 5.03125 
Q 5.8125 7.671875 7.609375 9.46875 
Q 9.421875 11.28125 12.109375 11.28125 
Q 14.84375 11.28125 16.640625 9.453125 
Q 18.453125 7.625 18.453125 5.03125 
Q 18.453125 2.484375 16.640625 0.65625 
Q 14.84375 -1.171875 12.0625 -1.171875 
Q 9.375 -1.171875 7.59375 0.65625 
Q 5.8125 2.484375 5.8125 5.03125 
z
" id="MicrosoftYaHei-46"/>
       <path d="M 41.65625 55.8125 
Q 41.65625 61.921875 37.796875 65.40625 
Q 33.9375 68.890625 27.296875 68.890625 
Q 22.609375 68.890625 17.8125 66.5 
Q 13.03125 64.109375 8.890625 59.671875 
L 8.890625 68.953125 
Q 12.59375 72.796875 17.296875 74.84375 
Q 22.015625 76.90625 28.375 76.90625 
Q 38.625 76.90625 44.875 71.40625 
Q 51.125 65.921875 51.125 56.546875 
Q 51.125 48.1875 47.28125 42.078125 
Q 43.453125 35.984375 34.1875 29.59375 
Q 24.703125 23.046875 21.5 20.21875 
Q 18.3125 17.390625 17.03125 14.796875 
Q 15.765625 12.203125 15.765625 8.5 
L 53.375 8.5 
L 53.375 0 
L 5.8125 0 
L 5.8125 3.765625 
Q 5.8125 10.296875 7.59375 14.859375 
Q 9.375 19.4375 13.46875 23.75 
Q 17.578125 28.078125 26.265625 34.125 
Q 35.15625 40.375 38.40625 45.09375 
Q 41.65625 49.8125 41.65625 55.8125 
z
" id="MicrosoftYaHei-50"/>
      </defs>
      <g transform="translate(172.097766 581.99375)scale(0.1 -0.1)">
       <use xlink:href="#MicrosoftYaHei-8722"/>
       <use x="74.169922" xlink:href="#MicrosoftYaHei-48"/>
       <use x="132.8125" xlink:href="#MicrosoftYaHei-46"/>
       <use x="156.884766" xlink:href="#MicrosoftYaHei-50"/>
      </g>
     </g>
    </g>
    <g id="xtick_2">
     <g id="line2d_2">
      <g>
       <use style="stroke:#000000;stroke-width:0.8;" x="290.618182" xlink:href="#mea2b7b3e3c" y="567"/>
      </g>
     </g>
     <g id="text_2">
      <!-- 0.0 -->
      <g transform="translate(283.550213 581.99375)scale(0.1 -0.1)">
       <use xlink:href="#MicrosoftYaHei-48"/>
       <use x="58.642578" xlink:href="#MicrosoftYaHei-46"/>
       <use x="82.714844" xlink:href="#MicrosoftYaHei-48"/>
      </g>
     </g>
    </g>
    <g id="xtick_3">
     <g id="line2d_3">
      <g>
       <use style="stroke:#000000;stroke-width:0.8;" x="398.362035" xlink:href="#mea2b7b3e3c" y="567"/>
      </g>
     </g>
     <g id="text_3">
      <!-- 0.2 -->
      <g transform="translate(391.294066 581.99375)scale(0.1 -0.1)">
       <use xlink:href="#MicrosoftYaHei-48"/>
       <use x="58.642578" xlink:href="#MicrosoftYaHei-46"/>
       <use x="82.714844" xlink:href="#MicrosoftYaHei-50"/>
      </g>
     </g>
    </g>
    <g id="xtick_4">
     <g id="line2d_4">
      <g>
       <use style="stroke:#000000;stroke-width:0.8;" x="506.105888" xlink:href="#mea2b7b3e3c" y="567"/>
      </g>
     </g>
     <g id="text_4">
      <!-- 0.4 -->
      <defs>
       <path d="M 45.40625 75.640625 
L 45.40625 25.6875 
L 56.734375 25.6875 
L 56.734375 17.78125 
L 45.40625 17.78125 
L 45.40625 0 
L 36.140625 0 
L 36.140625 17.78125 
L 0.828125 17.78125 
L 0.828125 25.25 
Q 10.25 35.84375 19.765625 49.65625 
Q 29.296875 63.484375 35.5 75.640625 
z
M 11.578125 25.6875 
L 36.140625 25.6875 
L 36.140625 61.71875 
Q 31.0625 52.59375 25.25 44.015625 
Q 19.4375 35.453125 11.578125 25.6875 
z
" id="MicrosoftYaHei-52"/>
      </defs>
      <g transform="translate(499.037919 581.99375)scale(0.1 -0.1)">
       <use xlink:href="#MicrosoftYaHei-48"/>
       <use x="58.642578" xlink:href="#MicrosoftYaHei-46"/>
       <use x="82.714844" xlink:href="#MicrosoftYaHei-52"/>
      </g>
     </g>
    </g>
    <g id="xtick_5">
     <g id="line2d_5">
      <g>
       <use style="stroke:#000000;stroke-width:0.8;" x="613.849741" xlink:href="#mea2b7b3e3c" y="567"/>
      </g>
     </g>
     <g id="text_5">
      <!-- 0.6 -->
      <defs>
       <path d="M 49.703125 65.921875 
Q 43.796875 68.953125 37.359375 68.953125 
Q 27.546875 68.953125 21.578125 60.40625 
Q 15.625 51.859375 15.53125 37.0625 
L 15.765625 37.0625 
Q 21.140625 47.46875 32.90625 47.46875 
Q 42.71875 47.46875 48.578125 41.0625 
Q 54.4375 34.671875 54.4375 24.078125 
Q 54.4375 12.984375 47.671875 5.859375 
Q 40.921875 -1.265625 30.421875 -1.265625 
Q 18.890625 -1.265625 12.328125 7.734375 
Q 5.765625 16.75 5.765625 33.296875 
Q 5.765625 53.328125 14.375 65.109375 
Q 23 76.90625 37.0625 76.90625 
Q 45.125 76.90625 49.703125 74.703125 
z
M 16.109375 24.75 
Q 16.109375 17.28125 20.09375 11.953125 
Q 24.078125 6.640625 30.671875 6.640625 
Q 36.921875 6.640625 40.828125 11.234375 
Q 44.734375 15.828125 44.734375 23.046875 
Q 44.734375 30.859375 41.046875 35.203125 
Q 37.359375 39.546875 30.5625 39.546875 
Q 24.125 39.546875 20.109375 35.15625 
Q 16.109375 30.765625 16.109375 24.75 
z
" id="MicrosoftYaHei-54"/>
      </defs>
      <g transform="translate(606.781772 581.99375)scale(0.1 -0.1)">
       <use xlink:href="#MicrosoftYaHei-48"/>
       <use x="58.642578" xlink:href="#MicrosoftYaHei-46"/>
       <use x="82.714844" xlink:href="#MicrosoftYaHei-54"/>
      </g>
     </g>
    </g>
    <g id="xtick_6">
     <g id="line2d_6">
      <g>
       <use style="stroke:#000000;stroke-width:0.8;" x="721.593594" xlink:href="#mea2b7b3e3c" y="567"/>
      </g>
     </g>
     <g id="text_6">
      <!-- 0.8 -->
      <defs>
       <path d="M 4.78125 21.09375 
Q 4.78125 27.640625 8.6875 33.15625 
Q 12.59375 38.671875 18.75 41.015625 
Q 13.8125 43.796875 10.9375 48.140625 
Q 8.0625 52.484375 8.0625 57.5625 
Q 8.0625 62.9375 10.8125 67.375 
Q 13.578125 71.828125 18.484375 74.359375 
Q 23.390625 76.90625 29.296875 76.90625 
Q 35.25 76.90625 40.1875 74.390625 
Q 45.125 71.875 47.859375 67.421875 
Q 50.59375 62.984375 50.59375 57.5625 
Q 50.59375 52.59375 47.78125 48.21875 
Q 44.96875 43.84375 39.984375 41.015625 
Q 46.140625 38.625 50 33.109375 
Q 53.859375 27.59375 53.859375 21.09375 
Q 53.859375 14.65625 50.78125 9.546875 
Q 47.703125 4.4375 42.03125 1.609375 
Q 36.375 -1.21875 29.296875 -1.21875 
Q 22.265625 -1.21875 16.640625 1.609375 
Q 11.03125 4.4375 7.90625 9.5625 
Q 4.78125 14.703125 4.78125 21.09375 
z
M 14.15625 21.53125 
Q 14.15625 14.796875 18.3125 10.734375 
Q 22.46875 6.6875 29.34375 6.6875 
Q 36.078125 6.6875 40.34375 10.8125 
Q 44.625 14.9375 44.625 21.53125 
Q 44.625 27.78125 40.296875 32.046875 
Q 35.984375 36.328125 29.34375 36.328125 
Q 22.75 36.328125 18.453125 32.15625 
Q 14.15625 27.984375 14.15625 21.53125 
z
M 16.890625 56.78125 
Q 16.890625 51.703125 20.5 48.0625 
Q 24.125 44.4375 29.34375 44.4375 
Q 34.46875 44.4375 38.203125 48.09375 
Q 41.9375 51.765625 41.9375 56.78125 
Q 41.9375 61.921875 38.34375 65.484375 
Q 34.765625 69.046875 29.34375 69.046875 
Q 23.96875 69.046875 20.421875 65.546875 
Q 16.890625 62.0625 16.890625 56.78125 
z
" id="MicrosoftYaHei-56"/>
      </defs>
      <g transform="translate(714.525625 581.99375)scale(0.1 -0.1)">
       <use xlink:href="#MicrosoftYaHei-48"/>
       <use x="58.642578" xlink:href="#MicrosoftYaHei-46"/>
       <use x="82.714844" xlink:href="#MicrosoftYaHei-56"/>
      </g>
     </g>
    </g>
   </g>
   <g id="matplotlib.axis_2">
    <g id="ytick_1">
     <g id="line2d_7">
      <defs>
       <path d="M 0 0 
L -3.5 0 
" id="md48c667cda" style="stroke:#000000;stroke-width:0.8;"/>
      </defs>
      <g>
       <use style="stroke:#000000;stroke-width:0.8;" x="108" xlink:href="#md48c667cda" y="544.761818"/>
      </g>
     </g>
     <g id="text_7">
      <!-- 0 -->
      <g transform="translate(95.135937 548.758693)scale(0.1 -0.1)">
       <use xlink:href="#MicrosoftYaHei-48"/>
      </g>
     </g>
    </g>
    <g id="ytick_2">
     <g id="line2d_8">
      <g>
       <use style="stroke:#000000;stroke-width:0.8;" x="108" xlink:href="#md48c667cda" y="478.377604"/>
      </g>
     </g>
     <g id="text_8">
      <!-- 1 -->
      <defs>
       <path d="M 27.828125 0 
L 27.828125 64.703125 
Q 25.59375 62.453125 20.234375 59.671875 
Q 14.890625 56.890625 10.359375 55.765625 
L 10.359375 65.140625 
Q 16.359375 66.796875 23.1875 70.4375 
Q 30.03125 74.078125 33.6875 77.296875 
L 37.3125 77.296875 
L 37.3125 0 
z
" id="MicrosoftYaHei-49"/>
      </defs>
      <g transform="translate(95.135937 482.374479)scale(0.1 -0.1)">
       <use xlink:href="#MicrosoftYaHei-49"/>
      </g>
     </g>
    </g>
    <g id="ytick_3">
     <g id="line2d_9">
      <g>
       <use style="stroke:#000000;stroke-width:0.8;" x="108" xlink:href="#md48c667cda" y="411.993391"/>
      </g>
     </g>
     <g id="text_9">
      <!-- 2 -->
      <g transform="translate(95.135937 415.990266)scale(0.1 -0.1)">
       <use xlink:href="#MicrosoftYaHei-50"/>
      </g>
     </g>
    </g>
    <g id="ytick_4">
     <g id="line2d_10">
      <g>
       <use style="stroke:#000000;stroke-width:0.8;" x="108" xlink:href="#md48c667cda" y="345.609177"/>
      </g>
     </g>
     <g id="text_10">
      <!-- 3 -->
      <defs>
       <path d="M 6.984375 12.640625 
Q 14.75 6.640625 24.515625 6.640625 
Q 32.328125 6.640625 36.890625 10.46875 
Q 41.453125 14.3125 41.453125 20.75 
Q 41.453125 35.109375 20.90625 35.109375 
L 14.59375 35.109375 
L 14.59375 43.015625 
L 20.609375 43.015625 
Q 38.8125 43.015625 38.8125 56.5 
Q 38.8125 68.953125 24.90625 68.953125 
Q 16.9375 68.953125 9.90625 63.578125 
L 9.90625 72.609375 
Q 17.328125 76.90625 27.25 76.90625 
Q 36.921875 76.90625 42.78125 71.84375 
Q 48.640625 66.796875 48.640625 58.734375 
Q 48.640625 43.890625 33.5 39.65625 
L 33.5 39.453125 
Q 41.703125 38.578125 46.453125 33.671875 
Q 51.21875 28.765625 51.21875 21.4375 
Q 51.21875 11.234375 43.875 4.984375 
Q 36.53125 -1.265625 24.3125 -1.265625 
Q 13.578125 -1.265625 6.984375 2.734375 
z
" id="MicrosoftYaHei-51"/>
      </defs>
      <g transform="translate(95.135937 349.606052)scale(0.1 -0.1)">
       <use xlink:href="#MicrosoftYaHei-51"/>
      </g>
     </g>
    </g>
    <g id="ytick_5">
     <g id="line2d_11">
      <g>
       <use style="stroke:#000000;stroke-width:0.8;" x="108" xlink:href="#md48c667cda" y="279.224963"/>
      </g>
     </g>
     <g id="text_11">
      <!-- 4 -->
      <g transform="translate(95.135937 283.221838)scale(0.1 -0.1)">
       <use xlink:href="#MicrosoftYaHei-52"/>
      </g>
     </g>
    </g>
    <g id="ytick_6">
     <g id="line2d_12">
      <g>
       <use style="stroke:#000000;stroke-width:0.8;" x="108" xlink:href="#md48c667cda" y="212.840749"/>
      </g>
     </g>
     <g id="text_12">
      <!-- 5 -->
      <defs>
       <path d="M 51.46875 23.34375 
Q 51.46875 12.25 44.109375 5.46875 
Q 36.765625 -1.3125 24.359375 -1.3125 
Q 13.71875 -1.3125 8.5 1.859375 
L 8.5 11.625 
Q 16.15625 6.640625 24.125 6.640625 
Q 32.03125 6.640625 36.890625 11 
Q 41.75 15.375 41.75 22.609375 
Q 41.75 29.828125 36.6875 33.859375 
Q 31.640625 37.890625 22.40625 37.890625 
Q 15.28125 37.890625 9.578125 37.25 
L 12.359375 75.640625 
L 47.703125 75.640625 
L 47.703125 67.234375 
L 20.40625 67.234375 
L 18.84375 45.796875 
L 25.734375 46.09375 
Q 37.75 46.09375 44.609375 40.109375 
Q 51.46875 34.125 51.46875 23.34375 
z
" id="MicrosoftYaHei-53"/>
      </defs>
      <g transform="translate(95.135937 216.837624)scale(0.1 -0.1)">
       <use xlink:href="#MicrosoftYaHei-53"/>
      </g>
     </g>
    </g>
    <g id="ytick_7">
     <g id="line2d_13">
      <g>
       <use style="stroke:#000000;stroke-width:0.8;" x="108" xlink:href="#md48c667cda" y="146.456536"/>
      </g>
     </g>
     <g id="text_13">
      <!-- 6 -->
      <g transform="translate(95.135937 150.453411)scale(0.1 -0.1)">
       <use xlink:href="#MicrosoftYaHei-54"/>
      </g>
     </g>
    </g>
    <g id="ytick_8">
     <g id="line2d_14">
      <g>
       <use style="stroke:#000000;stroke-width:0.8;" x="108" xlink:href="#md48c667cda" y="80.072322"/>
      </g>
     </g>
     <g id="text_14">
      <!-- 7 -->
      <defs>
       <path d="M 53.46875 69.734375 
Q 41.546875 48.921875 34.734375 31.21875 
Q 27.9375 13.53125 26.3125 0 
L 16.359375 0 
Q 18.171875 13.328125 24.90625 30.421875 
Q 31.640625 47.515625 42.921875 67.1875 
L 5.421875 67.1875 
L 5.421875 75.640625 
L 53.46875 75.640625 
z
" id="MicrosoftYaHei-55"/>
      </defs>
      <g transform="translate(95.135937 84.069197)scale(0.1 -0.1)">
       <use xlink:href="#MicrosoftYaHei-55"/>
      </g>
     </g>
    </g>
    <g id="text_15">
     <!-- Density -->
     <defs>
      <path d="M 9.765625 0 
L 9.765625 75.640625 
L 31.34375 75.640625 
Q 48.53125 75.640625 59.9375 65.625 
Q 71.34375 55.609375 71.34375 38.765625 
Q 71.34375 21.1875 59.9375 10.59375 
Q 48.53125 0 30.5625 0 
z
M 19.53125 66.9375 
L 19.53125 8.640625 
L 30.515625 8.640625 
Q 44.921875 8.640625 53 16.5 
Q 61.078125 24.359375 61.078125 38.53125 
Q 61.078125 52.6875 52.78125 59.8125 
Q 44.484375 66.9375 30.953125 66.9375 
z
" id="MicrosoftYaHei-68"/>
      <path d="M 52.546875 24.5625 
L 14.75 24.5625 
Q 14.984375 15.921875 19.46875 11.203125 
Q 23.96875 6.5 32.03125 6.5 
Q 41.109375 6.5 48.6875 12.3125 
L 48.6875 3.765625 
Q 41.546875 -1.265625 29.78125 -1.265625 
Q 18.0625 -1.265625 11.5 6.15625 
Q 4.9375 13.578125 4.9375 26.765625 
Q 4.9375 39.15625 12.140625 47.21875 
Q 19.34375 55.28125 30.03125 55.28125 
Q 40.625 55.28125 46.578125 48.46875 
Q 52.546875 41.65625 52.546875 29.390625 
z
M 42.96875 32.234375 
Q 42.921875 39.546875 39.5 43.546875 
Q 36.078125 47.5625 29.890625 47.5625 
Q 24.171875 47.5625 20 43.3125 
Q 15.828125 39.0625 14.75 32.234375 
z
" id="MicrosoftYaHei-101"/>
      <path d="M 54.203125 0 
L 44.671875 0 
L 44.671875 30.71875 
Q 44.671875 47.359375 32.515625 47.359375 
Q 26.21875 47.359375 22.15625 42.671875 
Q 18.109375 37.984375 18.109375 30.8125 
L 18.109375 0 
L 8.546875 0 
L 8.546875 54 
L 18.109375 54 
L 18.109375 45.0625 
L 18.3125 45.0625 
Q 24.421875 55.28125 36.03125 55.28125 
Q 44.921875 55.28125 49.5625 49.578125 
Q 54.203125 43.890625 54.203125 33.015625 
z
" id="MicrosoftYaHei-110"/>
      <path d="M 5.515625 11.671875 
Q 12.75 6.453125 21.09375 6.453125 
Q 32.28125 6.453125 32.28125 13.765625 
Q 32.28125 16.890625 29.828125 18.921875 
Q 27.390625 20.953125 19.921875 23.734375 
Q 10.9375 27.34375 8.25 30.875 
Q 5.5625 34.421875 5.5625 39.453125 
Q 5.5625 46.625 11.640625 50.953125 
Q 17.71875 55.28125 26.609375 55.28125 
Q 33.5 55.28125 39.40625 52.875 
L 39.40625 43.65625 
Q 33.34375 47.5625 25.6875 47.5625 
Q 21.09375 47.5625 18.203125 45.5625 
Q 15.328125 43.5625 15.328125 40.28125 
Q 15.328125 37.0625 17.40625 35.25 
Q 19.484375 33.453125 26.609375 30.609375 
Q 35.640625 27.25 38.8125 23.625 
Q 42 20.015625 42 14.703125 
Q 42 7.28125 35.90625 3 
Q 29.828125 -1.265625 20.171875 -1.265625 
Q 11.765625 -1.265625 5.515625 1.90625 
z
" id="MicrosoftYaHei-115"/>
      <path d="M 7.375 73.046875 
Q 7.375 75.59375 9.109375 77.3125 
Q 10.84375 79.046875 13.375 79.046875 
Q 15.96875 79.046875 17.75 77.34375 
Q 19.53125 75.640625 19.53125 73.046875 
Q 19.53125 70.515625 17.75 68.828125 
Q 15.96875 67.140625 13.375 67.140625 
Q 10.796875 67.140625 9.078125 68.828125 
Q 7.375 70.515625 7.375 73.046875 
z
M 8.5 0 
L 8.5 54 
L 18.0625 54 
L 18.0625 0 
z
" id="MicrosoftYaHei-105"/>
      <path d="M 34.46875 0.53125 
Q 31.34375 -1.171875 26.03125 -1.171875 
Q 11.53125 -1.171875 11.53125 14.890625 
L 11.53125 46.09375 
L 2.25 46.09375 
L 2.25 54 
L 11.53125 54 
L 11.53125 67 
L 21.046875 70.015625 
L 21.046875 54 
L 34.46875 54 
L 34.46875 46.09375 
L 21.046875 46.09375 
L 21.046875 16.609375 
Q 21.046875 11.28125 22.84375 8.984375 
Q 24.65625 6.6875 28.859375 6.6875 
Q 32.078125 6.6875 34.46875 8.5 
z
" id="MicrosoftYaHei-116"/>
      <path d="M 52.484375 54 
L 27.984375 -8.15625 
Q 21.140625 -25.4375 8.6875 -25.4375 
Q 5.125 -25.4375 2.59375 -24.65625 
L 2.59375 -16.265625 
Q 5.375 -17.328125 7.953125 -17.328125 
Q 14.453125 -17.328125 17.671875 -9.71875 
L 21.828125 0.09375 
L 0.640625 54 
L 11.234375 54 
L 25.34375 13.421875 
L 26.515625 8.984375 
L 26.765625 8.984375 
Q 27.046875 10.5 27.9375 13.328125 
L 42.671875 54 
z
" id="MicrosoftYaHei-121"/>
     </defs>
     <g transform="translate(88.592187 340.26125)rotate(-90)scale(0.1 -0.1)">
      <use xlink:href="#MicrosoftYaHei-68"/>
      <use x="76.171875" xlink:href="#MicrosoftYaHei-101"/>
      <use x="132.910156" xlink:href="#MicrosoftYaHei-110"/>
      <use x="194.53125" xlink:href="#MicrosoftYaHei-115"/>
      <use x="240.820312" xlink:href="#MicrosoftYaHei-105"/>
      <use x="267.431641" xlink:href="#MicrosoftYaHei-116"/>
      <use x="304.6875" xlink:href="#MicrosoftYaHei-121"/>
     </g>
    </g>
   </g>
   <g id="line2d_15">
    <path clip-path="url(#p12004e9083)" d="M 175.381782 544.761248 
L 206.296052 544.651657 
L 215.062785 544.397531 
L 220.599669 544.037137 
L 225.213739 543.5267 
L 228.904995 542.918516 
L 232.596251 542.074086 
L 235.8261 541.093917 
L 238.594542 540.041132 
L 241.362984 538.765123 
L 244.131426 537.243195 
L 246.899868 535.457509 
L 249.66831 533.397344 
L 252.436752 531.061392 
L 255.205194 528.459918 
L 258.435043 525.121574 
L 262.126299 520.985399 
L 275.045695 506.114399 
L 277.814137 503.434602 
L 280.121172 501.494395 
L 282.428207 499.872541 
L 284.273835 498.832589 
L 286.119464 498.040734 
L 287.965092 497.510437 
L 289.81072 497.250746 
L 291.656348 497.266035 
L 293.501976 497.555869 
L 295.347604 498.115004 
L 297.193232 498.933529 
L 299.03886 499.997134 
L 300.884488 501.287503 
L 303.191523 503.185806 
L 305.959965 505.816906 
L 309.189814 509.253798 
L 313.803884 514.548805 
L 320.263582 521.951154 
L 323.954838 525.81654 
L 326.72328 528.426572 
L 329.491722 530.740091 
L 332.260164 532.727719 
L 334.567199 534.122355 
L 336.874234 535.274111 
L 339.181269 536.182785 
L 341.488304 536.851532 
L 343.795339 537.286028 
L 346.102374 537.493694 
L 348.409409 537.482997 
L 350.716444 537.262843 
L 353.023479 536.842062 
L 355.791921 536.083976 
L 358.560363 535.061695 
L 361.328805 533.78555 
L 364.097247 532.262876 
L 366.865689 530.497504 
L 369.634132 528.489239 
L 372.402574 526.233321 
L 375.171016 523.71982 
L 377.939458 520.932988 
L 380.7079 517.850584 
L 383.476342 514.443211 
L 386.244784 510.673732 
L 389.013226 506.49684 
L 391.781668 501.858873 
L 394.088703 497.597302 
L 396.395738 492.932871 
L 398.702773 487.822533 
L 401.009808 482.220726 
L 403.316843 476.080313 
L 405.623878 469.353788 
L 407.930913 461.994764 
L 410.237948 453.959728 
L 412.544983 445.210067 
L 415.313425 433.723475 
L 418.081867 421.127136 
L 420.850309 407.411084 
L 423.618751 392.597231 
L 426.8486 374.008208 
L 430.539856 351.251877 
L 434.692519 324.190098 
L 446.689101 244.969046 
L 449.91895 225.768017 
L 452.225986 213.217088 
L 454.533021 201.855704 
L 456.378649 193.743495 
L 458.224277 186.589536 
L 460.069905 180.466674 
L 461.454126 176.588846 
L 462.838347 173.347713 
L 464.222568 170.760861 
L 465.145382 169.406551 
L 466.068196 168.351933 
L 466.99101 167.599014 
L 467.913824 167.148924 
L 468.836638 167.001914 
L 469.759452 167.157362 
L 470.682266 167.613784 
L 471.60508 168.368845 
L 472.527894 169.419379 
L 473.450708 170.761415 
L 474.834929 173.310429 
L 476.21915 176.485286 
L 477.603371 180.263306 
L 478.987592 184.618602 
L 480.83322 191.273578 
L 482.678848 198.828503 
L 484.985883 209.413548 
L 487.292918 221.109269 
L 490.06136 236.364376 
L 493.291209 255.46143 
L 497.905279 284.291435 
L 509.901861 360.160116 
L 514.054524 384.724881 
L 517.74578 405.279554 
L 520.975629 422.133395 
L 524.205478 437.845705 
L 527.435327 452.361275 
L 530.203769 463.82452 
L 532.972212 474.373245 
L 535.740654 484.007012 
L 538.509096 492.734828 
L 540.816131 499.328898 
L 543.123166 505.321835 
L 545.430201 510.733312 
L 547.737236 515.586979 
L 550.044271 519.910086 
L 552.351306 523.733004 
L 554.658341 527.088649 
L 556.965376 530.011832 
L 559.272411 532.53857 
L 561.579446 534.705383 
L 563.886481 536.548616 
L 566.193516 538.103807 
L 568.500551 539.405129 
L 571.268993 540.677004 
L 574.037435 541.681446 
L 576.805877 542.464975 
L 580.035726 543.154326 
L 583.726982 543.713065 
L 588.341052 544.164567 
L 593.877936 544.470789 
L 601.721855 544.664975 
L 616.025473 544.751686 
L 636.327381 544.761585 
L 636.327381 544.761585 
" style="fill:none;stroke:#1f77b4;stroke-linecap:square;stroke-width:1.5;"/>
   </g>
   <g id="line2d_16">
    <path clip-path="url(#p12004e9083)" d="M 138.436364 544.761818 
L 219.478133 544.65508 
L 228.008845 544.410568 
L 234.102211 544.01242 
L 238.976904 543.462399 
L 243.24226 542.742375 
L 246.89828 541.902715 
L 250.5543 540.825335 
L 254.210319 539.491121 
L 257.866339 537.898885 
L 261.522359 536.071516 
L 266.397052 533.362166 
L 275.537101 528.170727 
L 279.19312 526.399674 
L 282.239803 525.199058 
L 284.67715 524.46471 
L 287.114496 523.958734 
L 289.551843 523.697715 
L 291.989189 523.68886 
L 294.426536 523.929384 
L 296.863882 524.406493 
L 299.301229 525.097959 
L 302.347912 526.216532 
L 306.003931 527.83242 
L 318.8 533.781623 
L 321.846683 534.842034 
L 324.893366 535.65727 
L 327.940049 536.206869 
L 330.986732 536.48891 
L 334.033415 536.518386 
L 337.080098 536.324425 
L 340.736118 535.852975 
L 345.610811 534.950304 
L 365.109582 530.800176 
L 369.374939 529.72675 
L 372.421622 528.754708 
L 374.858968 527.78873 
L 377.296314 526.603326 
L 379.733661 525.148452 
L 382.171007 523.373731 
L 383.999017 521.803094 
L 385.827027 520.004921 
L 387.655037 517.960461 
L 389.483047 515.65238 
L 391.311057 513.065028 
L 393.748403 509.157351 
L 396.185749 504.702323 
L 398.623096 499.680546 
L 401.060442 494.080305 
L 403.497789 487.897743 
L 405.935135 481.136768 
L 408.372482 473.808706 
L 411.419165 463.879409 
L 414.465848 453.141284 
L 417.512531 441.654439 
L 421.16855 426.978764 
L 425.433907 408.790154 
L 430.3086 386.853232 
L 435.792629 361.08387 
L 444.323342 319.761889 
L 452.854054 278.76788 
L 457.11941 259.259646 
L 460.77543 243.540507 
L 463.822113 231.426136 
L 466.259459 222.550535 
L 468.696806 214.542714 
L 470.524816 209.188801 
L 472.352826 204.45886 
L 474.180835 200.41099 
L 475.399509 198.119254 
L 476.618182 196.171707 
L 477.836855 194.583497 
L 479.055528 193.368772 
L 480.274201 192.54048 
L 481.492875 192.110176 
L 482.711548 192.08784 
L 483.930221 192.481694 
L 485.148894 193.298037 
L 486.367568 194.5411 
L 487.586241 196.212915 
L 488.804914 198.313215 
L 490.023587 200.83935 
L 491.24226 203.786243 
L 493.07027 208.978381 
L 494.89828 215.064121 
L 496.72629 221.995996 
L 498.5543 229.71546 
L 500.991646 241.113582 
L 503.428993 253.604041 
L 506.475676 270.440368 
L 510.741032 295.535996 
L 521.709091 361.090721 
L 525.365111 381.407449 
L 529.02113 400.397578 
L 532.067813 415.107434 
L 535.114496 428.77536 
L 538.161179 441.412622 
L 541.207862 453.051759 
L 544.254545 463.734171 
L 547.301229 473.500579 
L 550.347912 482.385105 
L 552.785258 488.875112 
L 555.222604 494.826507 
L 557.659951 500.246742 
L 560.097297 505.142954 
L 562.534644 509.523792 
L 564.97199 513.401191 
L 567.409337 516.79188 
L 569.846683 519.718469 
L 572.284029 522.209993 
L 574.721376 524.301873 
L 577.158722 526.035294 
L 579.596069 527.456071 
L 582.033415 528.613102 
L 585.080098 529.76489 
L 588.736118 530.841162 
L 593.610811 532.000212 
L 602.75086 534.134366 
L 608.844226 535.826467 
L 627.124324 541.167584 
L 631.999017 542.239237 
L 636.87371 543.075596 
L 641.748403 543.688673 
L 647.232432 544.15331 
L 653.935135 544.482432 
L 663.075184 544.678707 
L 679.527273 544.755778 
L 747.163636 544.761818 
L 747.163636 544.761818 
" style="fill:none;stroke:#ff7f0e;stroke-linecap:square;stroke-width:1.5;"/>
   </g>
   <g id="line2d_17">
    <path clip-path="url(#p12004e9083)" d="M 189.733512 544.761818 
L 244.97615 544.653935 
L 251.605266 544.420871 
L 256.466619 544.035482 
L 260.444088 543.485252 
L 263.537676 542.848667 
L 266.631264 541.978494 
L 269.28291 541.013089 
L 271.934557 539.82123 
L 274.586204 538.389929 
L 277.23785 536.719665 
L 280.331438 534.493708 
L 283.866967 531.664145 
L 293.14773 524.065729 
L 295.799377 522.283809 
L 298.009082 521.071739 
L 299.776847 520.317367 
L 301.544611 519.776935 
L 303.312375 519.465425 
L 305.08014 519.39157 
L 306.847904 519.557451 
L 308.615669 519.9584 
L 310.383433 520.583215 
L 312.151197 521.414681 
L 314.360903 522.710005 
L 317.012549 524.569033 
L 320.106137 527.026402 
L 330.270783 535.331939 
L 333.36437 537.453483 
L 336.016017 539.022545 
L 338.667663 540.349579 
L 341.31931 541.439614 
L 343.970957 542.308975 
L 347.064544 543.075566 
L 350.158132 543.614984 
L 353.693661 544.003514 
L 357.671131 544.204062 
L 361.648601 544.187724 
L 365.626071 543.952941 
L 369.161599 543.529546 
L 372.255187 542.952295 
L 375.348775 542.134259 
L 378.000422 541.200561 
L 380.652068 540.013013 
L 382.861774 538.8016 
L 385.071479 537.364549 
L 387.281185 535.679621 
L 389.49089 533.725023 
L 391.700596 531.479343 
L 393.910301 528.921239 
L 396.120007 526.028885 
L 398.329712 522.779209 
L 400.539418 519.146991 
L 402.749123 515.103927 
L 404.958829 510.61776 
L 407.168534 505.651621 
L 409.37824 500.163691 
L 411.587945 494.107308 
L 413.797651 487.431614 
L 416.007356 480.082801 
L 418.217062 472.005983 
L 420.426767 463.147673 
L 422.636473 453.458794 
L 424.846178 442.898079 
L 427.497825 429.033351 
L 430.149472 413.848333 
L 432.801118 397.359007 
L 435.894706 376.555792 
L 438.988294 354.236707 
L 442.965763 323.737871 
L 448.269057 281.106931 
L 456.223997 217.150169 
L 459.759525 190.412527 
L 462.853113 168.649568 
L 465.50476 151.606193 
L 467.714465 138.79559 
L 469.48223 129.604963 
L 471.249994 121.469991 
L 473.017758 114.496465 
L 474.343582 110.090102 
L 475.669405 106.434993 
L 476.995228 103.568237 
L 477.87911 102.111429 
L 478.762993 101.028105 
L 479.646875 100.32552 
L 480.530757 100.009633 
L 481.414639 100.084998 
L 482.298522 100.55467 
L 483.182404 101.420128 
L 484.066286 102.681211 
L 484.950168 104.336076 
L 485.83405 106.38118 
L 487.159874 110.168596 
L 488.485697 114.797116 
L 489.81152 120.23393 
L 491.579285 128.669837 
L 493.347049 138.357342 
L 495.556755 152.028915 
L 497.76646 167.179165 
L 500.418107 186.91279 
L 503.953635 215.092766 
L 509.256929 259.469454 
L 519.863515 348.436937 
L 524.724867 387.108562 
L 528.260396 413.611694 
L 531.353984 435.270122 
L 534.00563 452.441913 
L 536.657277 468.13776 
L 538.866983 479.988084 
L 541.076688 490.663602 
L 543.286394 500.142116 
L 545.054158 506.86786 
L 546.821922 512.8505 
L 548.589687 518.11897 
L 550.357451 522.711529 
L 552.125216 526.673903 
L 553.89298 530.057258 
L 555.660744 532.916173 
L 557.428509 535.306696 
L 559.196273 537.284598 
L 560.964038 538.903885 
L 562.731802 540.215605 
L 564.499566 541.26696 
L 566.709272 542.27974 
L 568.918977 543.025317 
L 571.570624 543.653053 
L 574.664212 544.122802 
L 578.641682 544.460746 
L 583.944975 544.65968 
L 593.667679 544.750656 
L 631.232673 544.761818 
L 631.232673 544.761818 
" style="fill:none;stroke:#2ca02c;stroke-linecap:square;stroke-width:1.5;"/>
   </g>
   <g id="patch_3">
    <path d="M 108 567 
L 108 77.76 
" style="fill:none;stroke:#000000;stroke-linecap:square;stroke-linejoin:miter;stroke-width:0.8;"/>
   </g>
   <g id="patch_4">
    <path d="M 777.6 567 
L 777.6 77.76 
" style="fill:none;stroke:#000000;stroke-linecap:square;stroke-linejoin:miter;stroke-width:0.8;"/>
   </g>
   <g id="patch_5">
    <path d="M 108 567 
L 777.6 567 
" style="fill:none;stroke:#000000;stroke-linecap:square;stroke-linejoin:miter;stroke-width:0.8;"/>
   </g>
   <g id="patch_6">
    <path d="M 108 77.76 
L 777.6 77.76 
" style="fill:none;stroke:#000000;stroke-linecap:square;stroke-linejoin:miter;stroke-width:0.8;"/>
   </g>
   <g id="legend_1">
    <g id="patch_7">
     <path d="M 688.6 132.199062 
L 770.6 132.199062 
Q 772.6 132.199062 772.6 130.199062 
L 772.6 84.76 
Q 772.6 82.76 770.6 82.76 
L 688.6 82.76 
Q 686.6 82.76 686.6 84.76 
L 686.6 130.199062 
Q 686.6 132.199062 688.6 132.199062 
z
" style="fill:#ffffff;opacity:0.8;stroke:#cccccc;stroke-linejoin:miter;"/>
    </g>
    <g id="line2d_18">
     <path d="M 690.6 91.25375 
L 710.6 91.25375 
" style="fill:none;stroke:#1f77b4;stroke-linecap:square;stroke-width:1.5;"/>
    </g>
    <g id="line2d_19"/>
    <g id="text_16">
     <!-- 抄袭率 -->
     <defs>
      <path d="M 1.46875 30.71875 
Q 8.890625 32.8125 15.71875 34.859375 
L 15.71875 56.890625 
L 2.34375 56.890625 
L 2.34375 63.71875 
L 15.71875 63.71875 
L 15.71875 82.375 
L 23.25 82.375 
L 23.25 63.71875 
L 35.0625 63.71875 
L 35.0625 56.890625 
L 23.25 56.890625 
L 23.25 37.25 
Q 28.421875 38.921875 33.203125 40.578125 
Q 33.203125 36.28125 33.40625 32.953125 
Q 28.125 31.296875 23.25 29.6875 
L 23.25 -0.921875 
Q 23.25 -11.578125 13.765625 -11.765625 
Q 10.15625 -11.859375 4 -11.765625 
Q 3.421875 -7.46875 2.640625 -3.65625 
Q 7.515625 -4.34375 12.015625 -4.25 
Q 15.921875 -4.15625 15.71875 0.34375 
L 15.71875 27.25 
Q 8.59375 24.8125 2.4375 22.609375 
z
M 27.4375 -4.828125 
Q 69.828125 3.859375 87.5 36.078125 
L 94.140625 31.203125 
Q 74.3125 -2.484375 31.546875 -11.859375 
Q 29.6875 -8.25 27.4375 -4.828125 
z
M 61.71875 81.984375 
L 69.4375 81.984375 
L 69.4375 20.65625 
L 61.71875 20.65625 
z
M 45.796875 66.546875 
L 53.328125 64.59375 
Q 49.125 48 43.359375 31.109375 
Q 39.65625 32.671875 35.640625 33.84375 
Q 42.28125 50.640625 45.796875 66.546875 
z
M 77.34375 64.59375 
L 83.984375 67.53125 
Q 91.5 55.421875 98.140625 42.234375 
L 91.109375 38.71875 
Q 85.0625 51.90625 77.34375 64.59375 
z
" id="MicrosoftYaHei-25220"/>
      <path d="M 8.203125 72.21875 
L 37.59375 72.21875 
Q 38.96875 77.4375 39.453125 83.640625 
L 46.875 82.671875 
Q 46.234375 77.046875 45.125 72.21875 
L 70.703125 72.21875 
Q 66.65625 75.390625 61.421875 78.765625 
L 65.234375 83.453125 
Q 71.6875 79.828125 76.859375 75.921875 
L 73.875 72.21875 
L 93.75 72.21875 
L 93.75 65.96875 
L 62.015625 65.96875 
L 62.015625 55.28125 
Q 72.515625 59.125 80.859375 63.921875 
L 84.765625 58.15625 
Q 73.96875 52.640625 62.109375 48.296875 
Q 62.796875 43.5 68.84375 43.5 
L 81.15625 43.5 
Q 87.796875 43.5 88.671875 49.359375 
Q 89.359375 53.5625 89.84375 60.203125 
Q 92.96875 58.640625 96.6875 57.375 
Q 95.796875 51.03125 95.015625 46.921875 
Q 93.265625 37.25 82.8125 37.25 
L 67.28125 37.25 
Q 56.84375 37.25 55.21875 45.90625 
Q 45.84375 42.828125 35.84375 40.484375 
Q 34.578125 43.890625 32.625 47.21875 
Q 44.671875 49.65625 54.984375 52.875 
L 54.984375 65.96875 
L 43.3125 65.96875 
Q 37.984375 46.734375 7.90625 33.84375 
Q 4.59375 38.71875 3.328125 40.09375 
Q 30.46875 51.03125 35.5 65.96875 
L 8.203125 65.96875 
z
M 57.125 3.5625 
Q 56.84375 -0.4375 56.84375 -4.046875 
Q 44.53125 -7.5625 36.53125 -10.40625 
Q 33.015625 -11.671875 29.5 -13.625 
L 25.390625 -7.671875 
Q 27.734375 -5.609375 27.734375 -0.4375 
L 27.734375 6.78125 
Q 18.015625 1.265625 5.765625 -3.375 
Q 4 -0.25 1.5625 3.265625 
Q 24.3125 10.40625 39.59375 23.390625 
L 5.078125 23.390625 
L 5.078125 29.640625 
L 95.125 29.640625 
L 95.125 23.390625 
L 54.734375 23.390625 
Q 58.6875 16.5 64.65625 11.375 
Q 72.40625 14.9375 85.546875 22.21875 
L 89.84375 15.375 
Q 77.734375 10.5 70.3125 7.234375 
Q 81.640625 0.09375 98.53125 -2.203125 
Q 95.609375 -6.109375 93.171875 -9.515625 
Q 61.421875 -3.265625 47.796875 21.828125 
Q 42.234375 16.15625 34.765625 11.140625 
L 34.765625 -3.265625 
Q 46.6875 0.140625 57.125 3.5625 
z
M 42.484375 38.71875 
L 48.25 41.9375 
Q 51.5625 37.453125 54.203125 33.15625 
L 48.140625 29.734375 
Q 45.796875 33.9375 42.484375 38.71875 
z
" id="MicrosoftYaHei-34989"/>
      <path d="M 39.453125 31.390625 
Q 40.96875 31.5 61.375 32.515625 
Q 58.9375 35.9375 56.640625 38.921875 
L 61.921875 42.234375 
Q 68.953125 34.421875 74.90625 25.828125 
L 68.65625 21.921875 
Q 66.9375 24.515625 65.28125 26.953125 
Q 46.734375 25.921875 34.578125 24.953125 
Q 32.421875 24.75 29.390625 24.078125 
L 26.953125 30.71875 
Q 29.890625 31.6875 31.34375 32.5625 
Q 39.59375 38.140625 47.65625 45.515625 
Q 40.578125 45.21875 35.546875 44.78125 
Q 33.5 44.484375 31.0625 43.890625 
L 28.125 49.859375 
Q 30.5625 50.734375 32.625 52.59375 
Q 39.203125 58.15625 44.921875 66.0625 
L 3.609375 66.0625 
L 3.609375 72.90625 
L 47.359375 72.90625 
Q 44.96875 77.25 42.875 80.515625 
L 49.90625 83.9375 
Q 53.71875 78.125 56.5 72.90625 
L 96.484375 72.90625 
L 96.484375 66.0625 
L 47.703125 66.0625 
L 52.34375 63.625 
Q 44.4375 55.515625 38.96875 50.734375 
Q 44.53125 50.875 53.515625 51.078125 
Q 57.421875 54.984375 61.328125 59.328125 
L 68.0625 55.421875 
Q 52.546875 40.671875 39.453125 31.390625 
z
M 2.25 15.484375 
L 46.78125 15.484375 
L 46.78125 24.078125 
L 54.5 24.078125 
L 54.5 15.484375 
L 98.046875 15.484375 
L 98.046875 8.640625 
L 54.5 8.640625 
L 54.5 -13.328125 
L 46.78125 -13.328125 
L 46.78125 8.640625 
L 2.25 8.640625 
z
M 26.859375 41.75 
L 30.375 35.984375 
Q 18.75 29.15625 6.640625 22.015625 
L 2.546875 28.5625 
Q 12.703125 33.34375 26.859375 41.75 
z
M 75.875 41.84375 
Q 89.84375 33.9375 97.65625 28.375 
L 93.359375 22.015625 
Q 83.296875 29.828125 71.875 36.578125 
z
M 93.65625 56.109375 
Q 86.234375 49.65625 77.546875 43.890625 
L 72.5625 49.078125 
Q 81.9375 55.21875 88.09375 61.375 
z
M 5.671875 56.78125 
L 10.640625 61.578125 
Q 18.75 55.125 24.8125 49.359375 
L 19.34375 44 
Q 13.671875 49.953125 5.671875 56.78125 
z
" id="MicrosoftYaHei-29575"/>
     </defs>
     <g transform="translate(718.6 94.75375)scale(0.1 -0.1)">
      <use xlink:href="#MicrosoftYaHei-25220"/>
      <use x="100" xlink:href="#MicrosoftYaHei-34989"/>
      <use x="200" xlink:href="#MicrosoftYaHei-29575"/>
     </g>
    </g>
    <g id="line2d_20">
     <path d="M 690.6 106.733437 
L 710.6 106.733437 
" style="fill:none;stroke:#ff7f0e;stroke-linecap:square;stroke-width:1.5;"/>
    </g>
    <g id="line2d_21"/>
    <g id="text_17">
     <!-- 被抄袭率 -->
     <defs>
      <path d="M 40.71875 68.609375 
L 66.015625 68.609375 
L 66.015625 82.859375 
L 73.046875 82.859375 
L 73.046875 68.609375 
L 96.296875 68.609375 
L 96.296875 62.453125 
Q 94.34375 55.71875 91.3125 49.359375 
Q 88.375 50.734375 84.671875 51.90625 
Q 87.203125 56.984375 88.765625 62.15625 
L 73.046875 62.15625 
L 73.046875 43.015625 
L 90.53125 43.015625 
L 90.53125 37.15625 
Q 85.796875 18.65625 75.6875 6.78125 
Q 83.796875 -0.390625 98.640625 -5.421875 
Q 95.703125 -8.9375 93.0625 -12.75 
Q 79 -6.546875 70.453125 1.609375 
Q 60.6875 -7.171875 46.875 -13.03125 
Q 44.734375 -9.71875 42 -6.59375 
Q 56.78125 -0.921875 65.671875 6.734375 
Q 55.859375 17.828125 52.4375 36.578125 
L 47.5625 36.578125 
L 47.5625 31.390625 
Q 47.5625 3.078125 32.515625 -13.03125 
Q 30.078125 -9.625 27.546875 -6.984375 
Q 40.71875 8.0625 40.71875 31.390625 
z
M 1.953125 56.890625 
L 1.953125 64.015625 
L 33.984375 64.015625 
L 33.984375 56.6875 
Q 28.765625 47.46875 22.078125 38.8125 
L 22.078125 36.53125 
Q 24.03125 34.578125 25.78125 32.765625 
Q 30.421875 37.984375 33.40625 41.9375 
L 38.578125 37.640625 
Q 35.15625 33.546875 29.984375 28.375 
Q 33.796875 24.3125 36.625 21.046875 
L 31.734375 15.96875 
Q 27.6875 21.34375 22.078125 27.640625 
L 22.078125 -12.453125 
L 15.234375 -12.453125 
L 15.234375 30.671875 
Q 10.015625 24.90625 4.109375 19.390625 
Q 3.03125 23.1875 1.375 27.875 
Q 17.28125 41.15625 25.390625 56.890625 
z
M 47.5625 43.015625 
L 66.015625 43.015625 
L 66.015625 62.15625 
L 47.5625 62.15625 
z
M 82.90625 36.578125 
L 59.1875 36.578125 
Q 62.3125 21.96875 70.75 11.96875 
Q 78.65625 21.734375 82.90625 36.578125 
z
M 11.53125 80.328125 
L 18.171875 83.640625 
Q 22.5625 76.90625 25.875 70.0625 
L 18.84375 66.546875 
Q 16.015625 72.703125 11.53125 80.328125 
z
" id="MicrosoftYaHei-34987"/>
     </defs>
     <g transform="translate(718.6 110.233437)scale(0.1 -0.1)">
      <use xlink:href="#MicrosoftYaHei-34987"/>
      <use x="100" xlink:href="#MicrosoftYaHei-25220"/>
      <use x="200" xlink:href="#MicrosoftYaHei-34989"/>
      <use x="300" xlink:href="#MicrosoftYaHei-29575"/>
     </g>
    </g>
    <g id="line2d_22">
     <path d="M 690.6 122.213125 
L 710.6 122.213125 
" style="fill:none;stroke:#2ca02c;stroke-linecap:square;stroke-width:1.5;"/>
    </g>
    <g id="line2d_23"/>
    <g id="text_18">
     <!-- 平均相似度 -->
     <defs>
      <path d="M 2.640625 30.21875 
L 45.90625 30.21875 
L 45.90625 71.046875 
L 7.03125 71.046875 
L 7.03125 78.5625 
L 93.359375 78.5625 
L 93.359375 71.046875 
L 54.109375 71.046875 
L 54.109375 30.21875 
L 97.65625 30.21875 
L 97.65625 22.703125 
L 54.109375 22.703125 
L 54.109375 -13.234375 
L 45.90625 -13.234375 
L 45.90625 22.703125 
L 2.640625 22.703125 
z
M 61.71875 39.984375 
Q 72.46875 51.3125 81.0625 64.984375 
L 88.375 60.296875 
Q 77.34375 45.171875 67.78125 34.90625 
z
M 12.015625 60.296875 
L 18.171875 64.59375 
Q 29.109375 51.8125 37.015625 39.890625 
L 30.078125 34.71875 
Q 22.5625 46.921875 12.015625 60.296875 
z
" id="MicrosoftYaHei-24179"/>
      <path d="M 35.0625 43.796875 
Q 45.796875 61.765625 52.15625 83.15625 
L 59.96875 80.8125 
Q 57.671875 74.125 55.171875 67.921875 
L 93.953125 67.921875 
Q 92.578125 16.453125 91.796875 4.640625 
Q 91.109375 -10.890625 75.09375 -10.890625 
Q 65.4375 -10.890625 57.90625 -10.5 
Q 57.328125 -6.59375 56.34375 -2.203125 
L 56.640625 -2.203125 
Q 66.40625 -3.265625 74.609375 -3.265625 
Q 83.59375 -3.265625 84.28125 5.90625 
Q 85.25 22.609375 86.140625 60.796875 
L 52.203125 60.796875 
Q 47.3125 49.5625 41.796875 40.1875 
Q 38.765625 42.046875 35.0625 43.796875 
z
M 1.265625 6.6875 
Q 8.734375 9.375 15.71875 12.015625 
L 15.71875 50.828125 
L 2.640625 50.828125 
L 2.640625 57.765625 
L 15.71875 57.765625 
L 15.71875 82.171875 
L 22.953125 82.171875 
L 22.953125 57.765625 
L 35.640625 57.765625 
L 35.640625 50.828125 
L 22.953125 50.828125 
L 22.953125 14.796875 
Q 30.03125 17.578125 36.53125 20.359375 
Q 36.71875 15.484375 37.015625 12.25 
Q 21.296875 6.296875 3.90625 -0.828125 
z
M 39.265625 13.328125 
Q 58.890625 21.140625 79.984375 30.21875 
Q 80.46875 25.640625 81.0625 22.40625 
Q 62.984375 14.796875 42.28125 5.609375 
z
M 49.03125 45.453125 
L 54.390625 50.25 
Q 62.890625 42.4375 70.796875 34.625 
L 64.453125 29.046875 
Q 56.9375 37.640625 49.03125 45.453125 
z
" id="MicrosoftYaHei-22343"/>
      <path d="M 42.78125 76.421875 
L 94.140625 76.421875 
L 94.140625 -12.84375 
L 86.71875 -12.84375 
L 86.71875 -6.203125 
L 50.203125 -6.203125 
L 50.203125 -12.84375 
L 42.78125 -12.84375 
z
M 1.46875 22.015625 
Q 12.25 37.0625 17.625 56.59375 
L 2.640625 56.59375 
L 2.640625 63.140625 
L 17.78125 63.140625 
L 17.78125 82.5625 
L 24.90625 82.5625 
L 24.90625 63.140625 
L 39.15625 63.140625 
L 39.15625 56.59375 
L 24.90625 56.59375 
L 24.90625 39.59375 
L 28.8125 43.609375 
Q 35.546875 37.0625 41.21875 31 
L 35.9375 25.828125 
Q 30.5625 32.171875 24.90625 38.1875 
L 24.90625 -12.640625 
L 17.78125 -12.640625 
L 17.78125 38.1875 
Q 12.5 23.6875 4.984375 13.53125 
Q 3.515625 17.71875 1.46875 22.015625 
z
M 50.203125 0.4375 
L 86.71875 0.4375 
L 86.71875 19.390625 
L 50.203125 19.390625 
z
M 86.71875 69.78125 
L 50.203125 69.78125 
L 50.203125 51.03125 
L 86.71875 51.03125 
z
M 50.203125 25.828125 
L 86.71875 25.828125 
L 86.71875 44.578125 
L 50.203125 44.578125 
z
" id="MicrosoftYaHei-30456"/>
      <path d="M 80.28125 80.125 
L 88.09375 80.125 
Q 88.09375 49.265625 85.9375 34.03125 
Q 84.625 24.3125 80.953125 16.015625 
Q 91.265625 3.765625 98.734375 -5.515625 
L 91.703125 -10.984375 
Q 85.453125 -1.515625 77.390625 9.078125 
Q 69.484375 -4.15625 54.6875 -13.234375 
Q 52.15625 -10.203125 48.640625 -6.78125 
Q 73.921875 6.6875 78.328125 35.203125 
Q 80.28125 47.515625 80.28125 80.125 
z
M 1.265625 35.59375 
Q 14.453125 57.953125 19.4375 83.0625 
L 26.65625 81.5 
Q 24.21875 71 20.796875 61.1875 
L 20.796875 -12.9375 
L 13.1875 -12.9375 
L 13.1875 42.921875 
Q 9.28125 34.859375 4.59375 27.296875 
Q 3.03125 31.5 1.265625 35.59375 
z
M 65.046875 29.734375 
Q 65.4375 23.96875 65.828125 20.5625 
Q 54.78125 13.53125 40.4375 3.65625 
Q 37.796875 1.703125 35.359375 -0.4375 
L 29.890625 6.203125 
Q 33.40625 9.328125 33.40625 15.09375 
L 33.40625 72.40625 
L 41.015625 72.40625 
L 41.015625 13.921875 
Q 51.375 20.5625 65.046875 29.734375 
z
M 49.421875 78.953125 
L 56.15625 82.46875 
Q 64.265625 68.3125 69.828125 57.5625 
L 62.109375 53.5625 
Q 55.46875 68.015625 49.421875 78.953125 
z
" id="MicrosoftYaHei-20284"/>
      <path d="M 24.21875 19 
L 24.21875 25.4375 
L 85.453125 25.4375 
L 85.453125 19.09375 
Q 76.609375 9.578125 64.796875 2.546875 
Q 78.90625 -3.125 97.859375 -4.828125 
L 94.046875 -12.453125 
Q 72.265625 -9.421875 56.9375 -1.703125 
Q 40.625 -9.671875 19.53125 -13.53125 
Q 17.96875 -10.40625 15.53125 -6.5 
Q 34.859375 -3.46875 49.46875 2.59375 
Q 39.015625 9.375 32.28125 19 
z
M 21.296875 55.328125 
L 35.84375 55.328125 
L 35.84375 63.53125 
L 43.265625 63.53125 
L 43.265625 55.328125 
L 70.90625 55.328125 
L 70.90625 63.625 
L 78.328125 63.625 
L 78.328125 55.328125 
L 96.09375 55.328125 
L 96.09375 48.875 
L 78.328125 48.875 
L 78.328125 30.125 
L 70.90625 30.125 
L 70.90625 33.546875 
L 43.265625 33.546875 
L 43.265625 30.03125 
L 35.84375 30.03125 
L 35.84375 48.875 
L 21.296875 48.875 
z
M 47.265625 80.8125 
L 54.390625 84.234375 
Q 57.71875 79 61.078125 72.40625 
L 97.078125 72.40625 
L 97.078125 65.578125 
L 19.140625 65.578125 
L 19.140625 36.1875 
Q 19.140625 2.78125 6.15625 -13.625 
Q 3.71875 -10.40625 0.59375 -6.984375 
Q 11.328125 6.203125 11.53125 36.671875 
L 11.53125 72.40625 
L 52.046875 72.40625 
Q 49.8125 76.703125 47.265625 80.8125 
z
M 43.265625 39.796875 
L 70.90625 39.796875 
L 70.90625 48.875 
L 43.265625 48.875 
z
M 75.296875 19 
L 40.4375 19 
Q 47.359375 11.375 57.125 6.109375 
Q 67.71875 11.578125 75.296875 19 
z
" id="MicrosoftYaHei-24230"/>
     </defs>
     <g transform="translate(718.6 125.713125)scale(0.1 -0.1)">
      <use xlink:href="#MicrosoftYaHei-24179"/>
      <use x="100" xlink:href="#MicrosoftYaHei-22343"/>
      <use x="200" xlink:href="#MicrosoftYaHei-30456"/>
      <use x="300" xlink:href="#MicrosoftYaHei-20284"/>
      <use x="400" xlink:href="#MicrosoftYaHei-24230"/>
     </g>
    </g>
   </g>
  </g>
 </g>
 <defs>
  <clipPath id="p12004e9083">
   <rect height="489.24" width="669.6" x="108" y="77.76"/>
  </clipPath>
 </defs>
</svg>
